<svg xmlns="http://www.w3.org/2000/svg" xml:space="preserve" enable-background="new 0 0 3800 3000" viewBox="0 0 3800 3000" id="man-with-join-us-sign-for-open-recruitment">
  <path fill="#f4f6f9" d="M818.15,2706.24h2418.48c0,0,311.76-631.56-103.92-1155.76c-415.68-524.21-1794.97-1149.51-2087.83-399.52   C752.01,1900.96,317.44,2186.99,818.15,2706.24z"></path>
  <path fill="#838bc5" d="M977.14,2716.2c-50.28-173.1,129.25-191.83,122.37-275.87c-7.17-88.24-21.57-138.64,126.02-286.23     c99.3-99.3,90.26-215.17,73.74-280.42c-78.59-28.23-19.09,227.19-116.93,194c-106.22-36.01-163.85-133.24-185.42-46.82     c-21.62,86.42,116.98,208.65,34.19,255.57c-82.83,46.87-111.62-131.37-165.62-77.33c-54.05,53.99,81.02,174.61,77.38,271.84     c-3.59,97.23-207.03-63.04-239.41,73.79c-22.77,96.07,103.58,148.66,180.87,171.47H977.14z"></path>
  <path fill="#5361a0" d="M1188.15,2716.2c18.35-30.44,51.42-104.38-18.43-158.84c-90.01-70.21,136.83-120.61,165.67-210.67     c28.79-90.01-97.23-113.39-68.44-154.81c28.79-41.42,169.25-216.03,55.81-304.26c-8.94-6.97-16.72-11.52-23.49-13.94     c16.52,65.26,25.56,181.12-73.74,280.42c-147.58,147.59-133.19,197.99-126.02,286.23c6.89,84.05-172.65,102.77-122.37,275.87     H1188.15z"></path>
  <path fill="#c1e7f6" d="M915.87 2589.05c15.05 6.23 35.5 15.7 40.85 26.43.15.29.43.44.63.69 1.81 43.72-2.96 80.29-6.39 100.03h9.12c6.54-38.6 16.83-133.33-18.19-224.05-.04-.19-.01-.38-.08-.56-4.44-12.66 12.23-49.97 26.94-76.88 33.08-11.9 55.62-23.14 82.74-53.28 28.83-32.04-29.9-97.19-65.15-64.08-28.71 26.97-26.47 89.34-24.65 111.56-8.4 15.18-22.77 43.18-27.72 64.72-9.35-20.28-21.09-40.16-35.96-58.92-13.58-17.13-24.06-34.1-32.18-50.69-4.29-21.02-9.45-38.28-19.38-56.13-10.32-49.87-1.58-91.96 6.67-116.9 25.64-13 43.52-25.46 63.38-53.31 22.37-31.34-36.34-83.25-64.29-50.31-25.58 30.16-11.99 95.93-9.51 106.85-6.79 22.65-12.89 55.81-8.43 94.77-2.34-3.19-4.72-6.39-7.44-9.72-27.25-33.4-100.62 14.68-73.29 54.57 22.79 33.27 87.21 40.17 107.98 41.54 7.82 14.76 17.44 29.77 29.44 44.9 44.88 56.62 61.26 123.74 65.54 181.18-9.89-8.75-25.05-15.71-37.42-20.81-17.96-29.89-33.35-49.6-68-70.26-37.02-22.08-89.55 48.17-50.24 76.33C833.33 2609.98 895.28 2594.98 915.87 2589.05zM1027.66 2716.2h348.53c11.59-22.53 24.67-70.96-47.36-108.95-54.96-28.99 40.87-82.43 10.96-139.03-29.91-56.6-91.37 16.02-117.24-34.18-25.87-50.2-80.34-163.4-102.76-92.92-22.43 70.49 86.51 114.28 14.95 166.61-71.56 52.33-160.2 79.03-72.62 98.26C1144.28 2624.02 1006.22 2654.46 1027.66 2716.2z"></path>
  <path fill="#5361a0" d="M1607.82,2716.2c26.93-69.97-130.2-104.3-37.82-124.58c97.7-21.45-1.19-51.23-81.02-109.61    c-79.83-58.38,41.7-107.23,16.68-185.87c-25.02-78.64-85.79,47.66-114.65,103.66c-28.86,56-97.43-25.02-130.8,38.13    c-33.36,63.15,73.54,122.77,12.23,155.11c-82.13,43.32-65.09,98.8-51.99,123.17H1607.82z"></path>
  <path fill="#838bc5" d="M1394.39 2655.49c4.83 7.8 11.06 18.86 9.97 25.52-.03.18.05.34.06.52-9.52 14.45-19.36 26.2-27.18 34.67h6.84c17.68-19.82 42.98-53.91 54.1-96.44.04-.1.12-.18.15-.28 2.14-7.25 22.04-18.81 37.61-26.27 19.03 5.45 33.04 7.73 55.35 2.88 23.72-5.15 18.32-54.26-8.68-50.73-22 2.88-41.5 32.12-47.98 42.87-8.83 4.17-24.62 12.24-33.96 20.46 2.4-12.35 3.58-25.3 2.95-38.76-.34-7.46-.14-14.48.43-21.17 16.95 4.57 30.52 6.22 51.14 1.74 23.72-5.15 18.32-54.26-8.69-50.73-14.41 1.89-27.72 15.06-37.02 26.96 2.8-7.38 4.78-14.53 5.72-22.59 11.7-26.19 29.54-42.55 41.52-51.23 16 2.5 28.27 2.68 46.51-3.5 20.54-6.96 10.79-50.01-12.82-44.15-21.62 5.36-37.05 39.9-39.51 45.71-10.56 8.11-24.26 21.27-35.04 40.54-.02-2.22-.05-4.47-.2-6.89-1.46-24.23-50.81-26.41-51.46.82-.54 22.71 26.64 47.06 35.68 54.52-1.29 9.31-1.83 19.35-1.33 30.21.13 2.84.16 5.65.14 8.45-1.16-7.98-3.5-16.18-7.69-25.84-9.65-22.27-56.78-7.46-48.08 18.35 6.99 20.75 38.61 34.09 50.78 38.55 0 0 2.79 16.11-24.83 64.87-1.64-7.25-6.28-15.43-10.25-21.83 1.63-19.57 1.08-33.64-7.95-54.49-9.65-22.28-56.78-7.46-48.08 18.35C1349.78 2637.89 1383.03 2651.42 1394.39 2655.49zM2670.19 2716.2c-50.28-173.1 129.25-191.83 122.37-275.87-7.17-88.24-21.57-138.64 126.02-286.23 99.3-99.3 90.26-215.17 73.74-280.42-78.59-28.23-19.09 227.19-116.93 194-106.22-36.01-163.85-133.24-185.42-46.82-21.62 86.42 116.98 208.65 34.19 255.57-82.83 46.87-111.62-131.37-165.62-77.33-54.05 53.99 81.02 174.61 77.38 271.84-3.59 97.23-207.03-63.04-239.41 73.79-22.77 96.07 103.58 148.66 180.87 171.47H2670.19z"></path>
  <path fill="#5361a0" d="M2881.2,2716.2c18.35-30.44,51.42-104.38-18.43-158.84c-90.01-70.21,136.83-120.61,165.67-210.67     c28.79-90.01-97.23-113.39-68.44-154.81c28.79-41.42,169.25-216.03,55.81-304.26c-8.94-6.97-16.72-11.52-23.49-13.94     c16.52,65.26,25.56,181.12-73.74,280.42c-147.58,147.59-133.19,197.99-126.02,286.23c6.89,84.05-172.65,102.77-122.37,275.87     H2881.2z"></path>
  <path fill="#c1e7f6" d="M2608.92 2589.05c15.05 6.23 35.5 15.7 40.85 26.43.15.29.43.44.63.69 1.81 43.72-2.96 80.29-6.39 100.03h9.12c6.54-38.6 16.83-133.33-18.19-224.05-.04-.19-.01-.38-.08-.56-4.44-12.66 12.23-49.97 26.94-76.88 33.08-11.9 55.62-23.14 82.74-53.28 28.83-32.04-29.91-97.19-65.15-64.08-28.71 26.97-26.47 89.34-24.65 111.56-8.4 15.18-22.77 43.18-27.72 64.72-9.35-20.28-21.09-40.16-35.96-58.92-13.58-17.13-24.06-34.1-32.18-50.69-4.29-21.02-9.45-38.28-19.38-56.13-10.32-49.87-1.58-91.96 6.67-116.9 25.64-13 43.52-25.46 63.38-53.31 22.37-31.34-36.34-83.25-64.29-50.31-25.58 30.16-11.99 95.93-9.51 106.85-6.79 22.65-12.89 55.81-8.43 94.77-2.34-3.19-4.72-6.39-7.44-9.72-27.25-33.4-100.62 14.68-73.29 54.57 22.79 33.27 87.21 40.17 107.98 41.54 7.82 14.76 17.44 29.77 29.44 44.9 44.89 56.62 61.26 123.74 65.54 181.18-9.89-8.75-25.05-15.71-37.42-20.81-17.96-29.89-33.35-49.6-68-70.26-37.02-22.08-89.55 48.17-50.24 76.33C2526.38 2609.98 2588.33 2594.98 2608.92 2589.05zM2720.71 2716.2h348.53c11.59-22.53 24.67-70.96-47.36-108.95-54.96-28.99 40.87-82.43 10.96-139.03-29.91-56.6-91.37 16.02-117.24-34.18-25.87-50.2-80.34-163.4-102.76-92.92-22.43 70.49 86.51 114.28 14.95 166.61-71.56 52.33-160.2 79.03-72.62 98.26C2837.33 2624.02 2699.27 2654.46 2720.71 2716.2z"></path>
  <path fill="#5361a0" d="M3300.87,2716.2c26.93-69.97-130.2-104.3-37.82-124.58c97.7-21.45-1.19-51.23-81.02-109.61    c-79.83-58.38,41.7-107.23,16.68-185.87c-25.02-78.64-85.79,47.66-114.65,103.66c-28.86,56-97.44-25.02-130.8,38.13    c-33.36,63.15,73.54,122.77,12.23,155.11c-82.13,43.32-65.09,98.8-51.99,123.17H3300.87z"></path>
  <path fill="#838bc5" d="M3087.44,2655.49c4.83,7.8,11.06,18.86,9.97,25.52c-0.03,0.18,0.05,0.34,0.06,0.52    c-9.52,14.45-19.36,26.2-27.18,34.67h6.84c17.68-19.82,42.98-53.91,54.1-96.44c0.04-0.1,0.12-0.18,0.15-0.28    c2.14-7.25,22.04-18.81,37.61-26.27c19.03,5.45,33.04,7.73,55.35,2.88c23.72-5.15,18.32-54.26-8.68-50.73    c-22,2.88-41.5,32.12-47.98,42.87c-8.83,4.17-24.62,12.24-33.96,20.46c2.4-12.35,3.58-25.3,2.95-38.76    c-0.34-7.46-0.14-14.48,0.43-21.17c16.95,4.57,30.52,6.22,51.14,1.74c23.72-5.15,18.32-54.26-8.69-50.73    c-14.41,1.89-27.72,15.06-37.02,26.96c2.8-7.38,4.78-14.53,5.72-22.59c11.7-26.19,29.54-42.55,41.52-51.23    c16,2.5,28.27,2.68,46.51-3.5c20.54-6.96,10.79-50.01-12.82-44.15c-21.62,5.36-37.05,39.9-39.51,45.71    c-10.56,8.11-24.26,21.27-35.04,40.54c-0.02-2.22-0.05-4.47-0.2-6.89c-1.46-24.23-50.81-26.41-51.46,0.82    c-0.54,22.71,26.64,47.06,35.68,54.52c-1.29,9.31-1.83,19.35-1.33,30.21c0.13,2.84,0.16,5.65,0.14,8.45    c-1.16-7.98-3.5-16.18-7.69-25.84c-9.65-22.27-56.78-7.46-48.08,18.35c6.99,20.75,38.61,34.09,50.78,38.55    c0,0,2.79,16.11-24.83,64.87c-1.64-7.25-6.28-15.43-10.25-21.83c1.63-19.57,1.08-33.64-7.95-54.49    c-9.65-22.28-56.78-7.46-48.08,18.35C3042.83,2637.89,3076.08,2651.42,3087.44,2655.49z"></path>
  <g>
    <circle cx="612.96" cy="1616.16" r="93.64" fill="#c8d9fb" transform="rotate(-16.476 613.07 1616.388)"></circle>
    <rect width="34.5" height="65.46" x="556.84" y="1598.3" fill="#fff" transform="rotate(-1.985 574.176 1633.45)"></rect>
    <path fill="#fff" d="M674.48,1616.09l-0.33,0.01l-0.38-11.27c-0.2-5.98-5.22-10.66-11.2-10.46l-30.39,1.04     c0,0,11.78-17.66,11.4-28.71c-0.34-9.89-1.23-22.97-15.82-22.47c0,0-5.19,3.45-4.68,18.3c0.47,13.71-27.13,35.01-27.13,35.01     l2.32,67.63c0,0,6.38,5.53,16.11,5.2l43.98-1.51c6.23-0.22,11.1-5.43,10.89-11.66l-0.23-6.85c3.66-0.13,6.53-3.2,6.4-6.86     l-0.27-7.96c2.2-0.07,3.92-1.92,3.84-4.11l-0.39-11.49C678.52,1617.73,676.68,1616.01,674.48,1616.09z"></path>
  </g>
  <g>
    <path fill="#c8d9fb" d="M3078.55,1381.14c-59.41,620.93-206.53,1332.2-206.53,1332.2H1174.91c0,0-445.06-1985.46-146.84-2208.19    c485.86-362.78,1761.45-246.15,1990.68,0c46.8,50.27,71.4,157.21,80.26,298.16C3109.1,963.16,3099.07,1166.77,3078.55,1381.14z"></path>
  </g>
  <path fill="#c8d9fb" d="M3324.42,2725.25H703.75c-5,0-9.05-4.05-9.05-9.05s4.05-9.05,9.05-9.05h2620.67c5,0,9.05,4.05,9.05,9.05   S3329.42,2725.25,3324.42,2725.25z"></path>
  <g>
    <path fill="#fff" d="M1960.88,1283.77c0,0-2.24,333.34-189.04,559.71c-120.35,145.84-535.72,233.16-636.4,162.6      C878.48,1826,390.5,880.21,390.5,880.21l88.42-17.35l761.49,714.9L1960.88,1283.77z"></path>
    <path fill="#838bc5" d="M707.2,1079.19c45.23,40.7,90.13,81.75,135.04,122.78l67.23,61.7l67.08,61.87l66.96,61.99l66.88,62.07    l66.74,62.23c22.25,20.74,44.5,41.47,66.67,62.3l-5.23-0.98l75.96-30.45l37.98-15.23l38.02-15.12l76.04-30.24l76.11-30.08    c50.73-20.07,101.55-39.93,152.37-59.78c50.85-19.78,101.71-39.53,152.71-58.94c-50.22,21.33-100.59,42.32-150.96,63.28    c-50.4,20.89-100.81,41.77-151.3,62.44l-75.73,31.03l-75.79,30.86l-37.9,15.43l-37.94,15.33l-75.87,30.66    c-1.83,0.74-3.85,0.3-5.21-0.96l-0.02-0.02c-22.27-20.72-44.45-41.53-66.63-62.34l-66.57-62.41l-66.42-62.57l-66.34-62.65    l-66.23-62.77l-66.07-62.94C794.81,1163.63,750.84,1121.59,707.2,1079.19z"></path>
    <path fill="#acc3ea" d="M1831.77,1353.72c-51.73,40.38-90.52,95.25-121.94,152.27c-32.68,59.32-56.39,122.15-81,185.04      c-22.22,56.78-55.11,112.2-116.9,130.84c-37.54,11.32-75.7,6.09-114.19,6.7c-19.99,0.32-39.96,2.21-59.36,7.18      c-22.29,5.7-41.98,15.77-62.29,26.23c-70.71,36.44-164.38,23.77-219.79-33.98c-28.37-29.57-48.09-66.07-69.2-100.84      c-24.73-40.72-55.85-76.17-88.28-110.91c-33.14-35.51-68.37-69.35-96.79-108.91c-25.97-36.14-47.24-75.35-66.96-115.17      c-10.18-20.56-16.88-43.12-29.93-61.99c-122.82-177.6-28.3-263.05-17.61-270.46c15.18-10.52-198.65-198.81-198.65-198.81      l-98.37,19.31c0,0,487.98,945.78,744.94,1125.86c100.68,70.56,516.05-16.76,636.4-162.6      c164.21-198.98,185.8-480.62,188.62-545.84C1913.81,1304.91,1869.82,1324.02,1831.77,1353.72z" opacity=".35"></path>
    <path fill="#fff" d="M2942.27,2710.33H1594.06c0,0-78.91-1501.4,648.91-1501.4C2892.48,1208.93,2942.27,2710.33,2942.27,2710.33z"></path>
    <path fill="#acc3ea" d="M2622.86,1788.08c-13.96,19.28-28.91,38.2-46.22,54.58c-17.45,16.52-36.87,30.83-57.01,43.89    c-39.71,25.76-81.85,47.59-121.96,72.73c-36.46,22.85-74.01,47.21-116.14,58.05c-42.48,10.94-85.27,3.51-124.88-14.11    c-42.48-18.9-81.49-46.33-115-78.44c-33.68-32.28-60.77-69.91-85.5-109.3c-26.26-41.84-48.86-85.95-68.31-131.33    c-35.84-83.64-61.62-172.05-75.39-262.07c-15.81,56.99-1.67,273.02,10.01,322.12c50.39,211.94,189.95,389.59,303.01,438.17    c15.51,6.67-21.13,522.12-5.14,527.92h255.31c11.05-6.72-3.2-539.82,9.28-543.63c254.47-77.71,282.47-324.14,280.56-444.25    C2652.16,1744.88,2638.18,1766.93,2622.86,1788.08z" opacity=".35"></path>
    <path fill="#324177" d="M2333.13,419.53c-38.63-32.55-170.82-63.1-196.29,57.32c-2.28,10.79-13.64,34.44-41.68,30.1        c-97.26-15.05-126.69,73.54-125.17,150.65c1.04,52.63,27.67,101.53,34.14,153.77c4.42,35.7-0.7,72.01,2.94,107.8        c4.53,44.46,22.94,87.4,52.02,121.33c12.08,14.1,26.5,26.99,44.1,32.93c46.72,15.74,93.71-21.55,126.19-58.65        c61.33-70.04,111.2-150.08,147.24-235.91c4.37-10.41,8.54-20.89,12.49-31.47c3.6-9.61,5.89-21.12,11.2-29.94        c7.73-12.84,29.84-13,42.74-17.99c35.68-13.82,77.16-34.15,88.09-70.69C2594.18,417.8,2353.91,437.05,2333.13,419.53z"></path>
    <path fill="#5361a0" d="M2442.12 623.07c.71 0 1.43-.11 2.14-.36 2.05-.71 50.39-17.86 69.9-52.35 1.77-3.12.67-7.09-2.46-8.85-3.11-1.77-7.09-.67-8.85 2.46-17.08 30.19-62.41 46.32-62.87 46.48-3.39 1.19-5.18 4.89-4 8.27C2436.92 621.4 2439.43 623.07 2442.12 623.07zM2372.65 622.54c2.32 0 4.57-1.25 5.74-3.45.66-1.24 16.29-31.05 28.55-94.42.69-3.53-1.62-6.93-5.14-7.61-3.53-.71-6.93 1.62-7.61 5.14-11.85 61.19-27.12 90.5-27.27 90.8-1.68 3.17-.48 7.1 2.69 8.78C2370.58 622.29 2371.62 622.54 2372.65 622.54zM2289.53 613.62c3.32 0 6.15-2.53 6.47-5.89.16-1.75 3.82-43.62-10.63-113.24-.73-3.52-4.15-5.79-7.68-5.04-3.52.73-5.77 4.17-5.04 7.68 14.01 67.51 10.45 108.99 10.41 109.4-.32 3.57 2.3 6.73 5.88 7.06C2289.13 613.61 2289.33 613.62 2289.53 613.62zM2182.75 633.25c.51 0 1.03-.06 1.54-.18 3.48-.85 5.63-4.36 4.78-7.85-.69-2.84-17.23-69.87-46.66-97.12-2.63-2.45-6.73-2.29-9.18.35-2.44 2.63-2.28 6.74.35 9.18 26.56 24.6 42.71 90 42.87 90.66C2177.17 631.26 2179.83 633.25 2182.75 633.25zM2092.35 672.32c1.43 0 2.86-.47 4.06-1.43 2.8-2.25 3.25-6.33 1-9.13-1.4-1.75-34.7-42.88-64.12-51.42-3.44-1.03-7.04.98-8.04 4.43-1 3.45.98 7.05 4.43 8.04 25.52 7.41 57.3 46.68 57.61 47.08C2088.56 671.49 2090.44 672.32 2092.35 672.32z"></path>
    <path fill="#eac8ac" d="M2019.97,861.29c10.61-28.61,42.17-47.86,72.46-44.21c0.24-34.96,2.7-70.28,13.08-103.66       c27.42-88.18,302.85-80.47,314.4-56.65c3.19,6.59,52.76,175.82,59.39,237.11c6.64,61.28-2.89,128.43-44.97,173.48       c-33.04,35.38-88.31,49.08-139.38,43.32c16.2,52.18,36.82,122.74,49.88,161.89c-31.65,24.7-214.69,1.2-254.68-2.23       c9.19-62.36,22.74-265.87,31.93-328.22c-22.42,20.69-58.83,13.61-75.99-0.08C2022.22,923.02,2009.36,889.89,2019.97,861.29z"></path>
    <path fill="#231f20" d="M2226.16,1282.31c2.32-4.21,4.58-8.35,5.03-13.28c0.57-6.21-2.07-11.63-2.71-17.68       c-0.47-4.44,1.3-5.72,5.05-7.44c17.78-8.16,40.46-19.44,44.07-41.06c3.99-23.93-22.05-39.52-37.8-52.3       c-9.55-7.75-16.04-16.02-21.77-26.84c-5.07-9.55-11.72-20.52-11.58-31.73c9.72,2.91,19.14,6.74,28.83,9.79       c11.34,3.58,23.24,6.14,34.92,8.32c8.34,1.56,16.83,2.3,25.37,2.59c16.1,51.97,36.36,121.22,49.26,159.89       C2329.54,1284.51,2278.91,1285.18,2226.16,1282.31z" opacity=".1"></path>
    <path fill="#324177" d="M2058.24 896.92c1.59 0 3.17-.58 4.42-1.74 2.63-2.44 2.78-6.55.34-9.18-4.27-4.6-6.1-9.03-5.6-13.55 1.03-9.24 11.32-16.38 11.43-16.46 2.96-2.02 3.73-6.05 1.72-9.02-2-2.96-6.05-3.74-9-1.74-.62.42-15.3 10.46-17.06 25.68-.97 8.41 2.05 16.46 8.98 23.93C2054.75 896.23 2056.49 896.92 2058.24 896.92zM2383.3 921.15c17.34 0 35.94-15.12 38.3-17.1 2.61-2.19 3.08-6.01 1.1-8.77-17.52-24.39-61.5-93.17-54.58-118.27 8.24-29.89 51.05-45.39 51.48-45.55 3.38-1.2 5.15-4.91 3.95-8.29-1.19-3.39-4.9-5.15-8.29-3.97-2.02.72-49.62 17.88-59.67 54.35-8.79 31.9 38.19 102.95 52.89 124.12-7.78 5.39-20.92 12.62-29.14 9.9-3.44-1.14-7.09.7-8.22 4.1-1.14 3.41.7 7.09 4.1 8.22C2377.84 920.77 2380.56 921.15 2383.3 921.15zM2226.56 785.31c5.39 5.43 26.68-6.96 40.3-20.5 13.62-13.54 14.43-23.08 9.03-28.52-5.4-5.43-14.95-4.69-28.57 8.84C2233.69 758.68 2221.16 779.87 2226.56 785.31z"></path>
    <path fill="#231f20" d="M2268.68 862.66c1.11 8.45 13.32 13.79 27.26 11.95 13.94-1.84 24.34-10.18 23.22-18.62-1.12-8.44-13.32-13.79-27.26-11.95C2277.97 845.89 2267.57 854.22 2268.68 862.66zM2400.64 835.45c1.11 8.45 13.32 13.79 27.26 11.95 13.94-1.84 24.34-10.18 23.22-18.62-1.12-8.44-13.32-13.79-27.26-11.95C2409.93 818.68 2399.53 827.01 2400.64 835.45z" opacity=".05"></path>
    <path fill="#324177" d="M2264.07,801.54c0,8.24,6.68,14.93,14.93,14.93s14.93-6.68,14.93-14.93c0-8.24-6.68-14.93-14.93-14.93       S2264.07,793.3,2264.07,801.54z"></path>
    <circle cx="2408.1" cy="791.7" r="14.93" fill="#324177"></circle>
    <path fill="#fff" d="M2398.9,958.08c-11.45,4.09-13.89,13.89-48.63,0c-34.73-13.89-47.47-24.85-53.26-6.63       c-5.79,18.21,62.52,76.85,101.89,47.9C2438.26,970.4,2406.61,955.32,2398.9,958.08z"></path>
    <path fill="#231f20" d="M2372.75,1030.6c6.35,0,13.14-1.33,20.38-4.75c3.24-1.54,4.62-5.41,3.1-8.65       c-1.54-3.24-5.39-4.64-8.65-3.1c-15.8,7.46-28.97,1.32-41.68-4.63l-1.52-0.7c-3.24-1.51-7.11-0.11-8.63,3.15       c-1.52,3.25-0.11,7.11,3.15,8.63l1.49,0.7C2349.62,1025.57,2360.37,1030.6,2372.75,1030.6z" opacity=".05"></path>
    <polygon fill="#838bc5" points="2112.69 1328.21 2055.89 1342.17 2125.47 1259.64 2207.53 1277.69 2286.55 1260.68 2357.66 1340.69 2296 1324.99 2269.64 1421.62 2358.97 2710.31 2075.43 2710.31 2150.54 1416.45"></polygon>
    <g>
      <radialGradient id="a" cx="1564.609" cy="1138.329" r="324.67" gradientTransform="matrix(-1 0 0 1 3788.486 0)" gradientUnits="userSpaceOnUse">
        <stop offset="0" stop-color="#fff"></stop>
        <stop offset="1" stop-color="#c1e7f6"></stop>
      </radialGradient>
      <path fill="url(#a)" d="M2286.55,1260.68l89.94,106.67c0,0,115.51-65.71,81.64-101.94c-33.87-36.22-141.23-82.67-141.23-82.67       l15.67,60.68L2286.55,1260.68z"></path>
    </g>
    <g>
      <radialGradient id="b" cx="1564.609" cy="1138.329" r="324.671" gradientTransform="matrix(-1 0 0 1 3788.486 0)" gradientUnits="userSpaceOnUse">
        <stop offset="0" stop-color="#fff"></stop>
        <stop offset="1" stop-color="#c1e7f6"></stop>
      </radialGradient>
      <path fill="url(#b)" d="M2125.47,1259.64l-89.94,106.67       c0,0-86.44-75.07-52.57-111.3c33.87-36.23,117.5-83.62,117.5-83.62l-7.42,76.09L2125.47,1259.64z"></path>
    </g>
    <path fill="#fff" d="M1728.22,1071.73c34.27,0,76.91-89.86,76.91-89.86l401.83,647.45c0,0,189.82-259.05,296.59-315.29    c127.72,31.41,392.85,497.72-190.61,807.06C1900.38,2339.81,1790.21,1398.72,1728.22,1071.73z"></path>
    <g>
      <path fill="#e5b0a3" d="M1807.17,959.19c0,0-5.64-6.18-19.52-20.07c-13.89-13.89-19.84-50.59-29.76-48.11       c-9.92,2.48-19.34,51.47-3.97,73.1C1769.3,985.74,1801.4,973.31,1807.17,959.19z"></path>
      <rect width="1451.51" height="495.16" x="315.48" y="572.45" fill="#acc3ea"></rect>
      <path fill="#fff" d="M652.27 822.05c0 8.32 0 14.04-.78 27.3-1.82 31.46-22.36 54.09-68.9 54.09-48.62 0-68.64-25.48-69.95-64.49l-.26-7.8h46.81l.51 7.8c1.56 23.4 10.93 30.16 24.19 30.16 13 0 19.76-8.32 21.06-22.62.52-5.98.52-11.7.52-17.16V720.39h46.8V822.05zM863.45 810.09c0 57.47-35.88 93.35-91.79 93.35-55.9 0-91.79-35.88-91.79-93.35 0-57.72 35.88-93.34 91.79-93.34C827.56 716.75 863.45 752.37 863.45 810.09zM815.6 810.09c0-38.22-16.9-59.02-43.94-59.02-27.04 0-43.94 20.8-43.94 59.02 0 37.97 16.9 59.03 43.94 59.03C798.7 869.11 815.6 848.06 815.6 810.09zM891.59 899.8V720.39h46.8V899.8H891.59zM1083.76 899.8l-65.27-118.56c1.56 18.2 1.56 34.06 1.56 44.46v74.1h-46.81V720.39h58.25l68.12 123.76c-1.3-18.2-1.56-36.66-1.56-47.06v-76.7h46.8V899.8H1083.76zM1381.55 821.01c0 9.1 0 14.56-.77 25.22-2.09 30.16-23.41 57.21-78.79 57.21-55.38 0-76.7-27.05-78.79-57.21-.77-10.66-.77-16.12-.77-25.22V720.39h46.8v109.2c0 4.95 0 7.55.26 10.66 1.3 18.73 11.96 28.87 32.5 28.87 20.54 0 31.2-10.14 32.5-28.87.26-3.11.26-5.71.26-10.66v-109.2h46.8V821.01zM1546.19 775.77h-46.8c-2.08-14.82-9.88-24.7-25.22-24.7-10.66 0-17.94 5.2-17.94 16.12 0 11.44 8.32 18.46 37.96 25.48 39.52 9.35 55.64 29.12 55.64 56.68 0 35.88-34.32 54.09-70.47 54.09-45.5 0-76.18-18.21-79.04-58.5h46.8c3.12 16.9 16.9 24.18 30.94 24.18 13 0 22.88-6.76 22.88-16.64 0-9.36-6.76-17.42-28.86-22.88-40.82-10.14-64.75-22.88-64.75-58.76 0-34.58 32.25-54.08 67.87-54.08C1522.54 716.75 1542.3 742.49 1546.19 775.77z"></path>
      <g>
        <path fill="#eac8ac" d="M388.6,743.34c2.91-13.26-21.87-23.84-37.94-29.65c15.51,0.28,34.05-6.61,28.02-18.35       c-12.74-24.82-87.59-48.13-104.53-34.75c-16.94,13.38,4.57,40.31,4.57,40.31c0,0,0,0,0,0c-6.14,3-13.64,7.26-16.18,11.22       c-16.77,26.1,9.05,40.31,9.05,40.31c-21.5,22.27,3.48,43.44,3.48,43.44c-24.47,25.42,4.85,42.84,4.85,42.84       s59.55,20.4,85.56,4.9c26.01-15.49-52.99-40.99-52.99-40.99s63.09,10.45,68.19-6.87c8.87-30.11-60.67-38.19-60.67-38.19       S382.62,770.56,388.6,743.34z"></path>
        <path fill="#fff" d="M354.57 725.52c-.09 1.17-3.2 26.11-3.2 26.11s23.8 6.18 27.42-5.99C382.27 733.94 354.57 725.52 354.57 725.52zM358.25 685.84c-.17.81-6.23 20.18-6.23 20.18s15.15.1 18.15-7.55C372.87 691.58 358.25 685.84 358.25 685.84zM354.72 775.22c-.24 1.15-4.68 22.93-4.68 22.93s19.67 6.53 23.62-4.37C377.39 783.5 354.72 775.22 354.72 775.22zM347.55 823.51c-.18.86-4.6 17.6-4.6 17.6s19.92 4.47 21.14-2.16C366.08 828.08 347.55 823.51 347.55 823.51z" opacity=".5"></path>
      </g>
      <g>
        <path fill="#eac8ac" d="M1807.17,959.19c0,0-139.72-10.08-144.54,15.71c-2.26,12.06,44.58,19.6,81.39,23.69       c-45.18-3.36-84.94-1.2-81.19,12.52c2.89,10.55,42.88,16.48,79.34,22.01c-25.34-1.51-77.52-3.07-77.68,8       c-0.28,18.79,51.54,22.68,86.59,24.55c-20.94,0.31-74.75,0.86-75.01,10.99c-0.23,8.97,9.91,17.19,53.99,19.38       c25.73,1.27,24.66,6.16,36.47,4.44c9.11-1.32,18.7-1.68,25.52-6.37C1824.9,1071.59,1826.17,970.04,1807.17,959.19z"></path>
        <path fill="#fff" d="M1679.56 1078.33c.93-4.67 15.74-7.32 17.19-6.44 0 0-.09 12.23-1.05 14.3C1694.73 1088.27 1678.63 1083 1679.56 1078.33zM1667.49 1043.23c.92-4.67 15.74-7.32 17.2-6.44 0 0-.09 12.23-1.06 14.3C1682.67 1053.17 1666.56 1047.9 1667.49 1043.23zM1667.08 1008.07c.93-4.67 15.74-7.32 17.19-6.44 0 0-.09 12.23-1.06 14.3C1682.26 1018.01 1666.15 1012.74 1667.08 1008.07zM1667.49 973.53c.92-4.67 15.74-7.32 17.19-6.43 0 0-.09 12.23-1.05 14.3C1682.67 983.47 1666.56 978.2 1667.49 973.53z" opacity=".2"></path>
        <path fill="#231f20" d="M1745.51,1065.72l44.87-6.33c0,0,9.09,14.8-3.93,29.09c0,0,23.34-9.89,24.31-61.56       c0.96-51.68-4.79-58.47-4.79-58.47s-0.4,16.07-11.56,24.86c-2.49,1.97-49.7,5.16-46.77,5.28c2.92,0.12,45.01,3.78,45.01,3.78       l-0.57,21.87l-43.97,8.33l44.3,0.31l-1.24,18.62L1745.51,1065.72z" opacity=".1"></path>
      </g>
    </g>
  </g>
  <path fill="#838bc5" d="m1205.2 2360.91 0-5.32c5.28 0 10.59-.03 15.94-.08l.05 5.32C1215.82 2360.88 1210.49 2360.91 1205.2 2360.91zM1189.2 2360.84c-5.37-.05-10.7-.14-16-.24l.11-5.32c5.28.11 10.59.19 15.94.24L1189.2 2360.84zM1237.19 2360.59l-.11-5.32c5.28-.11 10.59-.24 15.94-.4l.16 5.32C1247.81 2360.35 1242.48 2360.48 1237.19 2360.59zM1157.21 2360.19c-5.37-.17-10.69-.36-15.99-.58l.22-5.32c5.27.22 10.58.42 15.93.58L1157.21 2360.19zM1269.17 2359.65l-.21-5.32c5.28-.21 10.59-.43 15.93-.69l.25 5.32C1279.79 2359.21 1274.46 2359.44 1269.17 2359.65zM1125.24 2358.84c-5.37-.29-10.69-.6-15.97-.95l.35-5.31c5.26.34 10.56.66 15.91.94L1125.24 2358.84zM1301.12 2358.12l-.3-5.31c5.27-.3 10.58-.62 15.92-.97l.34 5.31C1311.73 2357.5 1306.41 2357.83 1301.12 2358.12zM1093.3 2356.76c-5.36-.41-10.67-.86-15.95-1.33l.48-5.3c5.25.47 10.54.91 15.88 1.33L1093.3 2356.76zM1333.04 2356.05l-.39-5.31c5.27-.39 10.57-.8 15.9-1.23l.43 5.31C1343.64 2355.25 1338.32 2355.66 1333.04 2356.05zM1061.43 2353.9c-5.35-.55-10.65-1.13-15.91-1.74l.61-5.29c5.23.61 10.51 1.18 15.84 1.73L1061.43 2353.9zM1364.92 2353.45l-.48-5.3c5.27-.47 10.56-.97 15.88-1.49l.51 5.3C1375.5 2352.48 1370.19 2352.98 1364.92 2353.45zM1396.75 2350.34l-.56-5.29c5.26-.55 10.55-1.13 15.86-1.73l.6 5.29C1407.32 2349.21 1402.02 2349.79 1396.75 2350.34zM1029.64 2350.21c-5.33-.69-10.62-1.42-15.86-2.17l.76-5.27c5.21.75 10.48 1.47 15.78 2.16L1029.64 2350.21zM1428.53 2346.76l-.63-5.29c5.25-.63 10.53-1.28 15.83-1.96l.68 5.28C1439.08 2345.47 1433.79 2346.13 1428.53 2346.76zM997.95 2345.65c-5.32-.84-10.58-1.72-15.79-2.63l.92-5.25c5.19.9 10.42 1.77 15.71 2.62L997.95 2345.65zM1460.25 2342.71l-.71-5.28c5.24-.71 10.51-1.43 15.8-2.18l.75 5.27C1470.78 2341.27 1465.5 2342.01 1460.25 2342.71zM966.41 2340.16c-5.29-1.01-10.53-2.04-15.71-3.11l1.08-5.21c5.16 1.06 10.36 2.1 15.62 3.1L966.41 2340.16zM1491.91 2338.22l-.79-5.27c5.23-.78 10.49-1.58 15.77-2.4l.82 5.26C1502.43 2336.64 1497.16 2337.44 1491.91 2338.22zM935.06 2333.68c-5.26-1.18-10.45-2.39-15.6-3.63l1.25-5.17c5.11 1.23 10.28 2.44 15.51 3.61L935.06 2333.68zM1523.51 2333.32l-.85-5.26c5.23-.84 10.47-1.71 15.74-2.6l.88 5.25C1534 2331.6 1528.74 2332.46 1523.51 2333.32zM1555.04 2328l-.91-5.25c5.21-.91 10.45-1.84 15.71-2.8l.95 5.24C1565.51 2326.15 1560.27 2327.08 1555.04 2328zM903.93 2326.15c-5.21-1.36-10.37-2.76-15.46-4.19l1.44-5.13c5.06 1.42 10.18 2.81 15.37 4.16L903.93 2326.15zM1586.5 2322.29l-.98-5.23 5.54-1.04.99 5.23L1586.5 2322.29zM873.09 2317.49c-5.16-1.56-10.26-3.15-15.29-4.77l1.64-5.06c5 1.61 10.06 3.19 15.19 4.74L873.09 2317.49zM842.6 2307.64c-5.1-1.77-10.12-3.57-15.08-5.41l1.85-4.99c4.92 1.82 9.91 3.61 14.97 5.37L842.6 2307.64zM812.55 2296.49c-5.02-1.99-9.96-4.02-14.83-6.08l2.07-4.9c4.83 2.05 9.74 4.06 14.72 6.03L812.55 2296.49zM783.04 2283.98c-4.92-2.23-9.76-4.5-14.52-6.8l2.32-4.79c4.72 2.29 9.52 4.53 14.4 6.74L783.04 2283.98zM754.18 2269.99c-4.8-2.49-9.52-5.01-14.14-7.57l2.58-4.66c4.58 2.54 9.25 5.04 14.01 7.51L754.18 2269.99zM726.13 2254.44c-4.66-2.76-9.22-5.56-13.67-8.4l2.86-4.49c4.41 2.8 8.92 5.58 13.53 8.31L726.13 2254.44zM699.05 2237.21c-4.48-3.06-8.85-6.15-13.1-9.28l3.15-4.29c4.21 3.09 8.53 6.15 12.95 9.17L699.05 2237.21zM673.17 2218.2c-4.26-3.36-8.39-6.77-12.41-10.2l3.46-4.04c3.96 3.39 8.05 6.75 12.25 10.07L673.17 2218.2zM648.77 2197.31c-3.98-3.69-7.83-7.42-11.55-11.18l3.79-3.75c3.67 3.7 7.46 7.38 11.39 11.02L648.77 2197.31zM626.16 2174.46c-3.63-4.02-7.17-8.11-10.51-12.18l4.11-3.38c3.29 4 6.77 8.04 10.34 11.99L626.16 2174.46zM605.74 2149.59c-3.22-4.35-6.32-8.79-9.23-13.19l4.44-2.93c2.86 4.33 5.91 8.69 9.07 12.96L605.74 2149.59zM588.03 2122.7c-2.72-4.68-5.3-9.45-7.68-14.17l4.76-2.39c2.33 4.62 4.86 9.3 7.52 13.89L588.03 2122.7zM573.56 2093.9c-2.12-4.99-4.08-10.06-5.81-15.05l5.03-1.75c1.7 4.88 3.61 9.84 5.68 14.72L573.56 2093.9zM563 2063.42c-1.4-5.21-2.62-10.51-3.61-15.75l5.23-.99c.97 5.11 2.15 10.27 3.52 15.35L563 2063.42zM557.01 2031.69c-.58-5.38-.95-10.81-1.08-16.13l5.32-.14c.13 5.18.49 10.46 1.05 15.7L557.01 2031.69zM561.52 1999.69l-5.31-.32c.32-5.39.89-10.81 1.68-16.11l5.27.79C562.39 1989.19 561.84 1994.46 561.52 1999.69zM566.17 1968.63l-5.17-1.26c1.27-5.24 2.8-10.47 4.54-15.55l5.04 1.72C568.89 1958.46 567.41 1963.54 566.17 1968.63zM576.33 1938.91l-4.86-2.17c2.19-4.9 4.63-9.77 7.27-14.48l4.65 2.6C580.83 1929.42 578.45 1934.15 576.33 1938.91zM591.68 1911.48l-4.4-3c3-4.4 6.26-8.77 9.69-12.97l4.13 3.36C597.76 1902.96 594.59 1907.2 591.68 1911.48zM611.54 1887.1l-3.83-3.7c3.7-3.84 7.63-7.6 11.68-11.19l3.53 3.99C618.97 1879.69 615.15 1883.36 611.54 1887.1zM635.11 1866.2l-3.22-4.24c4.22-3.21 8.66-6.34 13.2-9.3l2.91 4.46C643.56 1860.01 639.23 1863.07 635.11 1866.2zM661.5 1848.93l-2.6-4.64c4.23-2.37 8.62-4.68 13.06-6.84l1.23-.6 2.33 4.79-1.24.6C669.94 1844.36 665.64 1846.61 661.5 1848.93zM689.88 1834.6l-2.35-4.78c4.75-2.33 9.52-4.69 14.32-7.07l2.37 4.77C699.41 1829.9 694.63 1832.26 689.88 1834.6zM718.52 1820.39l-2.39-4.76c4.74-2.38 9.5-4.77 14.26-7.18l2.41 4.75C728.03 1815.61 723.27 1818.01 718.52 1820.39zM747.06 1805.94l-2.43-4.74c4.72-2.42 9.45-4.86 14.19-7.32l2.45 4.73C756.52 1801.07 751.78 1803.51 747.06 1805.94zM775.45 1791.19l-2.48-4.71c4.7-2.47 9.39-4.96 14.1-7.48l2.51 4.7C784.86 1786.22 780.15 1788.72 775.45 1791.19zM803.66 1776.11l-2.54-4.68c4.67-2.53 9.33-5.09 14-7.67l2.57 4.66C813.01 1771.01 808.34 1773.57 803.66 1776.11zM831.66 1760.63l-2.61-4.64c4.63-2.6 9.26-5.23 13.88-7.88l2.65 4.62C840.95 1755.39 836.31 1758.02 831.66 1760.63zM859.46 1744.69l-2.69-4.6c4.6-2.69 9.18-5.4 13.76-8.14l2.73 4.57C868.68 1739.27 864.07 1741.99 859.46 1744.69zM886.98 1728.24l-2.78-4.54c4.54-2.77 9.07-5.57 13.58-8.39l2.82 4.51C896.08 1722.65 891.54 1725.46 886.98 1728.24zM914.13 1711.26l-2.88-4.48c4.47-2.87 8.93-5.76 13.37-8.67l2.92 4.45C923.1 1705.48 918.62 1708.39 914.13 1711.26zM940.86 1693.69l-2.98-4.41c4.4-2.97 8.78-5.96 13.13-8.98l3.04 4.37C949.68 1687.7 945.28 1690.71 940.86 1693.69zM967.11 1675.47l-3.09-4.33c4.31-3.08 8.6-6.19 12.86-9.33l3.16 4.29C975.75 1669.26 971.44 1672.38 967.11 1675.47zM992.85 1656.51l-3.22-4.24c4.24-3.22 8.44-6.47 12.61-9.74l3.29 4.19C1001.34 1650.01 997.12 1653.28 992.85 1656.51zM1018.04 1636.71l-3.36-4.13c4.13-3.36 8.22-6.75 12.26-10.16l3.44 4.07C1026.31 1629.92 1022.19 1633.33 1018.04 1636.71zM1042.53 1616.04l-3.51-4c4-3.51 7.95-7.05 11.86-10.62l3.59 3.93C1050.54 1608.94 1046.55 1612.5 1042.53 1616.04zM1066.19 1594.41l-3.68-3.85c3.85-3.67 7.65-7.37 11.4-11.11l3.76 3.77C1073.9 1586.98 1070.07 1590.71 1066.19 1594.41zM1088.89 1571.76l-3.85-3.68c3.68-3.84 7.29-7.72 10.85-11.63l3.94 3.58C1096.24 1563.97 1092.59 1567.88 1088.89 1571.76zM1110.46 1548.02l-4.03-3.47c3.47-4.03 6.87-8.09 10.21-12.19l4.13 3.36C1117.39 1539.86 1113.96 1543.95 1110.46 1548.02zM1130.71 1523.12l-4.23-3.24c3.23-4.21 6.38-8.47 9.46-12.76l4.33 3.1C1137.16 1514.57 1133.97 1518.86 1130.71 1523.12zM1149.42 1497.04l-4.42-2.96c2.95-4.41 5.82-8.86 8.6-13.34l4.52 2.81C1155.3 1488.08 1152.4 1492.58 1149.42 1497.04zM1166.34 1469.75l-4.62-2.64c2.63-4.6 5.17-9.24 7.62-13.92l4.72 2.47C1171.58 1460.4 1169 1465.1 1166.34 1469.75zM1181.22 1441.28l-4.81-2.28c2.26-4.76 4.42-9.57 6.49-14.42l4.9 2.08C1185.7 1431.58 1183.51 1436.46 1181.22 1441.28zM1193.78 1411.77l-4.98-1.88c1.86-4.94 3.62-9.92 5.28-14.94l5.06 1.66C1197.45 1401.71 1195.67 1406.76 1193.78 1411.77zM1203.83 1381.21l-5.13-1.45c1.43-5.07 2.74-10.18 3.95-15.33l5.18 1.22C1206.63 1370.84 1205.28 1376.08 1203.83 1381.21zM1211.16 1349.93l-5.23-.98c.97-5.16 1.83-10.42 2.57-15.62l5.27.74C1213.01 1339.35 1212.14 1344.69 1211.16 1349.93zM1215.65 1318.11l-5.3-.5c.5-5.22.89-10.49 1.16-15.79l5.32.28C1216.56 1307.47 1216.16 1312.81 1215.65 1318.11zM1217.31 1286.03l-5.32-.04.01-2.85c0-4.3-.08-8.64-.23-13l5.32-.19c.16 4.42.23 8.82.23 13.18L1217.31 1286.03zM1210.88 1254.3c-.4-5.23-.92-10.49-1.54-15.79l5.29-.62c.63 5.37 1.15 10.7 1.56 16L1210.88 1254.3zM1207.18 1222.79c-.81-5.17-1.73-10.38-2.76-15.63l5.23-1.02c1.04 5.31 1.97 10.58 2.8 15.82L1207.18 1222.79zM1201.09 1191.64c-1.19-5.1-2.49-10.23-3.88-15.4l5.14-1.39c1.41 5.23 2.72 10.42 3.92 15.57L1201.09 1191.64zM1192.82 1160.99c-1.53-5.01-3.16-10.04-4.88-15.12l5.04-1.72c1.74 5.12 3.39 10.22 4.93 15.28L1192.82 1160.99zM1182.59 1130.9c-1.84-4.91-3.76-9.84-5.78-14.81l4.93-2.01c2.04 5.01 3.98 9.99 5.83 14.95L1182.59 1130.9zM3385 2313.23l-.68 0 .06-5.32.61 0c5.02 0 9.97-.47 14.73-1.39l1.01 5.22C3395.65 2312.73 3390.35 2313.23 3385 2313.23zM3367.99 2311.61c-5.29-1-10.61-2.47-15.79-4.37l1.83-5c4.92 1.8 9.95 3.19 14.95 4.14L3367.99 2311.61zM3416.52 2306.88l-2.12-4.88c4.72-2.05 9.17-4.64 13.23-7.69l3.2 4.26C3426.44 2301.87 3421.63 2304.67 3416.52 2306.88zM3337.31 2300.47c-4.72-2.58-9.34-5.56-13.73-8.84l3.19-4.26c4.2 3.13 8.6 5.97 13.1 8.44L3337.31 2300.47zM3442.81 2287.13l-4.1-3.39c3.2-3.88 6.03-8.2 8.4-12.85l4.74 2.42C3449.31 2278.31 3446.27 2282.96 3442.81 2287.13zM3311.19 2281.04c-3.83-3.73-7.51-7.79-10.94-12.06l4.15-3.33c3.3 4.1 6.83 8 10.5 11.57L3311.19 2281.04zM3457.85 2258l-5.12-1.48c.92-3.18 1.69-6.53 2.28-9.93.31-1.79.6-3.57.84-5.33l5.27.74c-.26 1.82-.54 3.66-.87 5.51C3459.63 2251.1 3458.82 2254.64 3457.85 2258zM3290.81 2255.75c-2.83-4.49-5.5-9.26-7.92-14.17l4.77-2.35c2.34 4.74 4.92 9.35 7.65 13.69L3290.81 2255.75zM3462.55 2225.82l-5.32-.18c.05-1.52.08-3.03.08-4.52 0-3.74-.16-7.48-.48-11.1l5.3-.46c.33 3.78.5 7.68.5 11.57C3462.63 2222.68 3462.6 2224.24 3462.55 2225.82zM3454.48 2194.65c-1.12-5.05-2.59-10.05-4.37-14.88l5-1.85c1.86 5.05 3.41 10.29 4.58 15.58L3454.48 2194.65zM3443.76 2165.61c-2.4-4.51-5.16-8.97-8.19-13.26l4.35-3.07c3.16 4.47 6.04 9.12 8.54 13.83L3443.76 2165.61zM3425.83 2140.16c-3.39-3.78-7.1-7.53-11.03-11.13l3.59-3.93c4.06 3.71 7.9 7.59 11.4 11.5L3425.83 2140.16zM3402.76 2118.95c-4.04-3.1-8.37-6.17-12.85-9.12l2.92-4.45c4.59 3.02 9.03 6.16 13.17 9.35L3402.76 2118.95zM3376.43 2101.6c-4.45-2.54-9.15-5.04-13.96-7.45l2.38-4.76c4.9 2.45 9.68 5 14.22 7.58L3376.43 2101.6zM3348.12 2087.41c-4.77-2.11-9.66-4.15-14.65-6.11l1.95-4.95c5.05 1.99 10.01 4.05 14.85 6.19L3348.12 2087.41zM3318.59 2075.76c-4.95-1.74-9.98-3.42-15.08-5.04l1.61-5.07c5.16 1.63 10.24 3.33 15.24 5.09L3318.59 2075.76zM3257.45 2058.18c-5.14-1.2-10.33-2.35-15.55-3.45l1.1-5.21c5.26 1.11 10.48 2.27 15.66 3.48L3257.45 2058.18zM3286.56 2065.65c-5.14-1.2-10.33-2.35-15.55-3.45l1.1-5.21c5.26 1.11 10.48 2.27 15.66 3.48L3286.56 2065.65zM3226.28 2051.59c-5.2-.99-10.43-1.94-15.68-2.85l.9-5.25c5.28.91 10.54 1.87 15.77 2.86L3226.28 2051.59zM3194.87 2046.16c-5.26-.82-10.54-1.6-15.82-2.34l.74-5.27c5.31.75 10.61 1.53 15.9 2.35L3194.87 2046.16zM3163.21 2041.71c-5.27-.66-10.56-1.29-15.83-1.88l.59-5.29c5.3.6 10.6 1.22 15.9 1.89L3163.21 2041.71zM3131.55 2038.16c-5.31-.53-10.61-1.03-15.89-1.49l.47-5.3c5.3.47 10.62.96 15.95 1.5L3131.55 2038.16zM3099.75 2035.36c-5.34-.41-10.65-.79-15.92-1.14l.35-5.31c5.3.35 10.62.73 15.98 1.14L3099.75 2035.36zM2860.54 2033.62l-.38-5.31c0 0 5.71-.41 16.02-.93l.27 5.32C2866.22 2033.21 2860.55 2033.62 2860.54 2033.62zM3067.9 2033.25c-5.36-.3-10.68-.57-15.94-.81l.24-5.32c5.28.24 10.62.51 15.99.82L3067.9 2033.25zM2892.38 2031.98l-.21-5.32c4.86-.19 10.2-.38 15.99-.56l.16 5.32C2902.55 2031.59 2897.22 2031.78 2892.38 2031.98zM3036 2031.77c-5.39-.2-10.72-.37-15.96-.52l.15-5.32c5.26.15 10.6.32 16.01.52L3036 2031.77zM2924.27 2030.99l-.12-5.32c5.09-.11 10.43-.21 15.99-.29l.07 5.32C2934.67 2030.78 2929.35 2030.88 2924.27 2030.99zM3004.07 2030.88c-5.42-.1-10.75-.18-15.97-.24l.06-5.32c5.24.06 10.58.14 16.02.24L3004.07 2030.88zM2956.17 2030.55l-.03-5.32c3.61-.02 7.29-.03 11.04-.03l4.92.01.02 5.32-4.94-.01C2963.44 2030.52 2959.77 2030.53 2956.17 2030.55z"></path>
  <g>
    <path fill="#c8d9fb" d="M3272.66,2109.29l18.89,106.68c0.36,2.01-1,3.95-3.01,4.3l-165.47,29.31c-2.01,0.36-3.95-1-4.3-3.01    l-18.89-106.68c-0.36-2.01,1-3.95,3.01-4.3l165.47-29.31C3270.37,2105.92,3272.31,2107.28,3272.66,2109.29z"></path>
    <radialGradient id="c" cx="2885.639" cy="1045.141" r="62.124" gradientTransform="rotate(21.685 218.843 2368.864)" gradientUnits="userSpaceOnUse">
      <stop offset="0" stop-color="#bfb0f9"></stop>
      <stop offset="1" stop-color="#efdbff"></stop>
    </radialGradient>
    <path fill="url(#c)" d="M3099.76,2139.23    l87.11,35.13c2.65,1.07,5.55,1.37,8.37,0.87l0,0c2.82-0.5,5.43-1.78,7.56-3.69l69.75-62.91l-74.73,60.73    c-1.96,1.6-4.61,2.06-7,1.24L3099.76,2139.23z" opacity=".3"></path>
    <radialGradient id="d" cx="2940.794" cy="1133.892" r="62.124" gradientTransform="rotate(21.685 218.843 2368.864)" gradientUnits="userSpaceOnUse">
      <stop offset="0" stop-color="#bfb0f9"></stop>
      <stop offset="1" stop-color="#efdbff"></stop>
    </radialGradient>
    <path fill="url(#d)" d="M3290.84,2211.9    l-87.11-35.13c-2.65-1.07-5.55-1.37-8.37-0.87l0,0c-2.82,0.5-5.43,1.78-7.56,3.69l-69.75,62.91l74.73-60.73    c1.96-1.6,4.61-2.07,7-1.24L3290.84,2211.9z" opacity=".3"></path>
    <path fill="#acc3ea" d="M3197.46,2187.51c-0.93,3.24-3.06,5.19-6.28,5.61c-5.12,0.76-8.01-2.86-8.53-10.04l-0.5-7.49     c-0.53-7.26,1.84-11.65,6.97-12.34c3.07-0.47,5.32,0.78,6.76,3.45l-0.31-4.3l6.98-1.24l1.54,21.41c0.07,1.26,0.61,1.77,1.78,1.56     c4.07-0.72,4.22-10.05,2.91-17.47c-1.61-9.09-7.08-14.58-17.19-12.78c-12.95,2.29-17.88,13.82-14.95,30.41     c2.07,11.71,8.75,18.03,20.31,15.98c5.38-0.95,9.79-2.78,14.18-7.61l0.66,7.09c-4.24,4.05-8.81,5.76-14.19,6.71     c-16.37,2.9-25.19-6.27-27.86-21.32c-3.18-17.97,3.08-34.31,21.04-37.49c15.35-2.72,21.92,6.02,24.01,17.8     c3.17,17.9-4.47,24.73-10.07,25.72C3201,2191.83,3198.35,2190.87,3197.46,2187.51z M3189.63,2181.47     c0.23,3.41,1.71,4.57,3.98,4.25c2.2-0.31,3.49-1.89,3.26-5.3l-0.5-7.04c-0.21-2.89-1.89-3.87-3.85-3.52     c-2.27,0.33-3.58,1.83-3.33,5.32L3189.63,2181.47z"></path>
  </g>
  <g>
    <path fill="#acc3ea" d="M3094.19,1187.86l-451.41,13.18c-16.63,0-30.09-13.5-30.09-30.09V761.03c0-16.63,13.45-30.09,30.09-30.09    h723.99c3.27,0,6.36,0.5,9.32,1.5C3384.26,862.07,3068.73,884.59,3094.19,1187.86z"></path>
    <path fill="#fff" d="M3409.5,665.46h-724c-16.62,0-30.09,13.47-30.09,30.09v409.91c0,16.62,13.47,30.09,30.09,30.09h724    c16.62,0,30.09-13.47,30.09-30.09V695.55C3439.59,678.93,3426.12,665.46,3409.5,665.46z"></path>
    <path fill="#acc3ea" d="M3361 945.51h-627.01c-9.16 0-16.6 7.43-16.6 16.6 0 9.17 7.43 16.6 16.6 16.6H3361c9.16 0 16.6-7.43 16.6-16.6C3377.6 952.94 3370.17 945.51 3361 945.51zM3358.66 875.06h-146.98c-9.17 0-16.6 7.43-16.6 16.6V892c0 9.17 7.43 16.6 16.6 16.6h146.98c9.16 0 16.6-7.43 16.6-16.6v-.34C3375.26 882.49 3367.82 875.06 3358.66 875.06zM3073.24 1015.48H2734c-9.17 0-16.6 7.43-16.6 16.6v.34c0 9.17 7.43 16.6 16.6 16.6h339.24c9.16 0 16.6-7.43 16.6-16.6v-.34C3089.83 1022.91 3082.4 1015.48 3073.24 1015.48zM3215.47 1015.48h-90.27c-9.17 0-16.6 7.43-16.6 16.6v.34c0 9.17 7.43 16.6 16.6 16.6h90.27c9.16 0 16.6-7.43 16.6-16.6v-.34C3232.06 1022.91 3224.63 1015.48 3215.47 1015.48zM2733.99 908.59h415.03c9.17 0 16.6-7.43 16.6-16.6v-.34c0-9.17-7.43-16.6-16.6-16.6h-415.03c-9.16 0-16.6 7.43-16.6 16.6V892C2717.4 901.17 2724.83 908.59 2733.99 908.59z"></path>
    <g>
      <path fill="#acc3ea" d="M2770.77 785.83c0 2.67 0 4.51-.25 8.77-.59 10.11-7.19 17.38-22.14 17.38-15.62 0-22.05-8.19-22.47-20.72l-.08-2.51h15.04l.17 2.51c.5 7.52 3.51 9.69 7.77 9.69 4.18 0 6.35-2.67 6.77-7.27.17-1.92.17-3.76.17-5.51v-35h15.04V785.83zM2838.62 781.99c0 18.46-11.53 29.99-29.49 29.99-17.96 0-29.49-11.53-29.49-29.99 0-18.55 11.53-29.99 29.49-29.99C2827.09 752 2838.62 763.44 2838.62 781.99zM2823.25 781.99c0-12.28-5.43-18.96-14.12-18.96-8.69 0-14.12 6.68-14.12 18.96 0 12.2 5.43 18.96 14.12 18.96C2817.82 800.95 2823.25 794.18 2823.25 781.99zM2895.7 793.43c0 10.78-8.77 16.12-16.54 17.04-2.93.34-4.85.34-8.52.34h-22.97v-57.64h23.64c3.09 0 4.43 0 7.35.33 9.53 1.17 14.87 7.18 14.87 14.7 0 5.26-2.76 9.27-8.44 11.28C2892.35 781.57 2895.7 786.41 2895.7 793.43zM2862.7 775.89h6.77c1.34 0 2.59-.08 3.67-.25 2.76-.42 4.68-1.84 4.68-5.26 0-3.26-1.75-4.84-4.59-5.26-1.09-.17-2.42-.25-3.76-.25h-6.77V775.89zM2879.99 792.93c0-3.84-2.76-5.85-5.85-6.1-1.09-.08-2.42-.08-3.76-.08h-7.69v12.36h8.1c1.34 0 2.67 0 3.76-.08C2877.23 798.86 2879.99 796.69 2879.99 792.93zM2933.73 795.85l-4.85 14.96h-15.96l20.8-57.64h18.38l20.8 57.64h-16.37l-4.85-14.96H2933.73zM2937.4 784.16h10.69l-5.35-17.71L2937.4 784.16zM2988.12 810.81l-20.8-57.64h16.38l13.78 46.03 13.87-46.03h15.96l-20.8 57.64H2988.12zM3041.61 795.85l-4.85 14.96h-15.95l20.8-57.64h18.38l20.8 57.64h-16.37l-4.85-14.96H3041.61zM3045.28 784.16h10.69l-5.35-17.71L3045.28 784.16zM3086.23 810.81v-57.64h15.04v57.64H3086.23zM3156.66 810.81h-44.2v-57.64h15.04v44.94h29.15V810.81zM3179.4 795.85l-4.85 14.96h-15.96l20.8-57.64h18.38l20.8 57.64h-16.37l-4.85-14.96H3179.4zM3183.07 784.16h10.69l-5.35-17.71L3183.07 784.16zM3272.06 793.43c0 10.78-8.77 16.12-16.54 17.04-2.93.34-4.85.34-8.52.34h-22.97v-57.64h23.64c3.09 0 4.43 0 7.35.33 9.53 1.17 14.87 7.18 14.87 14.7 0 5.26-2.76 9.27-8.44 11.28C3268.72 781.57 3272.06 786.41 3272.06 793.43zM3239.06 775.89h6.77c1.34 0 2.59-.08 3.67-.25 2.76-.42 4.68-1.84 4.68-5.26 0-3.26-1.75-4.84-4.59-5.26-1.08-.17-2.42-.25-3.76-.25h-6.77V775.89zM3256.35 792.93c0-3.84-2.76-5.85-5.85-6.1-1.09-.08-2.42-.08-3.76-.08h-7.69v12.36h8.1c1.34 0 2.67 0 3.76-.08C3253.6 798.86 3256.35 796.69 3256.35 792.93zM3325.12 810.81h-44.19v-57.64h15.04v44.94h29.15V810.81zM3377.6 810.81h-44.19v-57.64h43.36v11.7h-28.32v11.19h26.65v11.7h-26.65v11.36h29.15V810.81z"></path>
    </g>
  </g>
  <g>
    <circle cx="2924.15" cy="454.12" r="140.38" fill="#c8d9fb" transform="rotate(-79.753 2924.011 454.089)"></circle>
    <rect width="51.72" height="98.14" x="2957.23" y="425.5" fill="#fff" transform="matrix(-1 -.00288 .00288 -1 5964.797 957.742)"></rect>
    <path fill="#fff" d="M2831.96,456.9h0.5l0.05-16.91c0.02-8.97,7.32-16.22,16.29-16.2l45.59,0.13c0,0-18.49-25.91-18.44-42.49     c0.04-14.83,0.76-34.48,22.64-34.42c0,0,7.94,4.92,7.87,27.21c-0.06,20.56,42.29,51.18,42.29,51.18l-0.3,101.45     c0,0-9.31,8.59-23.9,8.55l-65.97-0.19c-9.34-0.03-16.89-7.62-16.86-16.96l0.03-10.27c-5.5-0.02-9.93-4.48-9.92-9.98l0.03-11.94     c-3.3-0.01-5.96-2.69-5.95-5.98l0.05-17.24C2825.98,459.55,2828.66,456.89,2831.96,456.9z"></path>
  </g>
</svg>
