<svg xmlns="http://www.w3.org/2000/svg" width="3000" height="3000" fill="none" viewBox="0 0 3000 3000" id="employee-works-remotely">
  <path fill="#FFC5A6" d="M1144.28 1514.59C1128.99 1537.91 1116.39 1712.17 1089.43 1707.78C1035.18 1699.04 869.708 1715.63 815.802 1704.85C803.087 1702.27 879.962 1496.72 872.286 1485.94C866.075 1477.27 865.49 1465.78 865.138 1455.06C863.204 1396.99 861.271 1338.87 859.396 1280.8C858.693 1261 858.048 1241.31 857.404 1221.51C932.286 1187.52 1019.47 1171.58 1107.31 1166.08C1111.99 1165.78 1117.27 1165.67 1120.96 1168.71C1125 1172.05 1125.76 1178.09 1126.23 1183.42C1131.27 1241.02 1136.37 1298.56 1141.41 1356.21C1144.57 1392.37 1147.79 1428.58 1150.96 1464.73C1152.48 1481.78 1153.59 1500.41 1144.28 1514.59Z"></path>
  <path fill="#FF9F6B" d="M1141.47 1356.1C1140.23 1356.33 1139.06 1356.51 1137.83 1356.68 1060.49 1368.05 938.028 1364.65 858.809 1263.28 858.106 1243.48 858.047 1241.19 857.403 1221.39 932.286 1187.41 1019.47 1171.47 1107.31 1165.96 1111.99 1165.67 1117.27 1165.55 1120.96 1168.6 1125 1171.94 1125.76 1177.97 1126.23 1183.3 1131.33 1240.96 1136.43 1298.5 1141.47 1356.1ZM792.479 1001.49C774.022 1006.88 761.307 1024.1 752.108 1041.39 747.948 1049.18 744.198 1057.33 742.674 1066.06 737.577 1094.83 758.67 1123.07 784.569 1134.96 810.467 1146.86 839.94 1146.21 868.241 1144.81 963.28 1140.12 1058.03 1129.57 1151.83 1113.28 1164.2 1111.12 1176.74 1108.83 1187.99 1103.09 1220.68 1086.39 1234.28 1039.75 1217.34 1006.47 1205.27 982.737 1181.19 967.386 1156.11 960.472 1131.03 953.558 1104.61 953.909 1078.65 954.73 982.03 957.601 886.874 973.831 792.479 1001.49Z"></path>
  <path fill="#FFC5A6" d="M795.879 974.706C793.007 1025.86 794.531 1077.24 800.449 1128.1C805.898 1174.92 816.796 1224.67 850.664 1256.37C860.742 1265.8 872.402 1273.18 884.531 1279.45C958.007 1317.3 1050.7 1311.8 1119.49 1265.51C1126.87 1260.58 1133.96 1255.14 1140.23 1248.81C1159.45 1229.47 1169.82 1202.28 1173.93 1174.92C1178.03 1147.56 1176.44 1119.67 1174.8 1092.01C1172.23 1048.3 1169.71 1004.59 1164.67 961.112C1163.38 949.804 1161.8 938.202 1156.46 928.241C1147.85 912.186 1130.92 903.046 1114.57 895.897C1069.8 876.386 1020.76 865.077 972.48 870.643C948.691 873.397 925.546 880.194 902.519 886.932C886.64 891.561 870.586 896.307 856.464 905.096C840.586 914.94 827.988 929.354 815.625 943.534C807.48 952.792 796.523 962.46 795.879 974.706Z"></path>
  <path fill="#203752" d="M1172.93 1061.54C1169 1056.85 1166.95 1050.87 1165.02 1045.01C1152.19 1005.52 1144.04 964.331 1140.88 922.788C1114.39 943.179 1081.87 957.007 1048.24 963.804C1014.67 970.601 979.978 970.659 945.994 966.851C934.568 965.562 923.084 963.804 912.185 960.054C892.849 953.316 876.15 940.484 860.799 926.655C856.463 985.015 832.615 1042.67 795.115 1088.49C764.353 1070.03 747.947 1033.59 740.681 997.671C732.596 957.593 733.709 915.23 746.599 876.558C759.49 837.886 784.451 803.081 818.025 781.343C831.678 772.495 847.381 765.698 863.728 769.566C882.303 735.523 920.857 719.351 957.244 708.628C999.549 696.148 1136.42 684.956 1206.03 782.691C1239.43 829.566 1232.81 898.237 1225.37 936.206C1216.52 981.265 1201.23 1026.26 1172.93 1061.54Z"></path>
  <path fill="#203752" d="M867.128 998.201C895.663 986.072 927.89 985.134 957.245 994.802 964.452 997.146 967.441 985.837 960.292 983.494 927.831 972.83 892.675 974.763 861.269 988.064 858.339 989.294 857.694 993.572 859.101 996.091 860.8 999.138 864.198 999.49 867.128 998.201ZM1020.41 995.917C1051 985.194 1084.04 985.546 1114.45 996.796 1121.54 999.432 1124.53 988.065 1117.5 985.487 1085.45 973.592 1049.71 973.299 1017.48 984.608 1010.39 987.069 1013.26 998.436 1020.41 995.917ZM908.204 1029.96C907.911 1030.01 907.618 1030.07 907.325 1030.19 906.564 1030.48 905.802 1030.72 905.099 1031.19 903.634 1032.12 902.697 1033.12 901.7 1034.47 900.118 1036.69 899.825 1039.57 900.353 1042.2 900.88 1044.96 902.814 1047.3 905.099 1048.76 906.505 1049.64 908.087 1050 909.669 1050.17 910.079 1050.23 910.431 1050.23 910.782 1050.17 911.603 1050.11 912.482 1050 913.302 1049.76 918.224 1048.24 922.15 1043.78 922.208 1038.51 922.267 1035.76 921.036 1033.06 919.161 1031.07 918.048 1029.9 916.7 1029.19 915.236 1028.67 913.771 1028.08 912.13 1028.14 910.607 1028.43 909.845 1028.55 909.083 1028.9 908.38 1029.25 907.677 1029.6 907.091 1030.13 906.447 1030.6 906.036 1030.95 905.743 1031.36 905.392 1031.83 905.04 1032.3 904.747 1032.65 904.513 1033.18 904.22 1033.82 903.81 1034.64 903.693 1035.41 903.517 1036.11 903.4 1036.93 903.4 1037.69 903.458 1038.45 903.517 1039.21 903.693 1039.98 903.927 1040.68 904.22 1041.56 904.689 1042.14 905.04 1042.85 905.568 1043.43 906.271 1043.84 906.857 1044.37 907.501 1044.72 908.263 1044.9 909.669 1045.25 911.486 1045.07 912.716 1044.31 914.005 1043.49 915.118 1042.26 915.47 1040.74 915.763 1039.33 915.763 1037.51 914.884 1036.28 914.767 1036.11 914.65 1035.87 914.532 1035.64 914.708 1036.11 914.943 1036.64 915.118 1037.1 915.06 1036.93 915.001 1036.75 914.943 1036.52 915.001 1037.05 915.06 1037.51 915.118 1038.04 915.06 1037.75 915.06 1037.51 915.118 1037.22 915.06 1037.69 915.001 1038.22 914.943 1038.69 915.001 1038.33 915.06 1038.04 915.177 1037.75 915.001 1038.22 914.825 1038.69 914.591 1039.16 914.708 1038.86 914.884 1038.57 915.06 1038.28 914.767 1038.69 914.474 1039.1 914.122 1039.51 914.357 1039.27 914.533 1039.04 914.825 1038.8 914.415 1039.1 914.005 1039.45 913.595 1039.74 913.771 1039.62 914.005 1039.51 914.24 1039.39 913.771 1039.57 913.243 1039.8 912.775 1039.98 913.009 1039.86 913.243 1039.8 913.478 1039.8 912.95 1039.86 912.482 1039.92 911.954 1039.98 912.247 1039.92 912.482 1039.98 912.775 1039.98 912.306 1039.92 911.779 1039.86 911.31 1039.8 911.603 1039.86 911.837 1039.92 912.13 1040.03 911.661 1039.86 911.193 1039.68 910.724 1039.45 911.017 1039.57 911.31 1039.74 911.603 1039.98 911.193 1039.68 910.782 1039.39 910.372 1039.04 910.665 1039.27 910.958 1039.57 911.193 1039.86 910.9 1039.45 910.548 1039.04 910.255 1038.63 910.548 1038.98 910.724 1039.39 910.9 1039.8 910.724 1039.33 910.49 1038.8 910.314 1038.33 910.431 1038.69 910.548 1039.1 910.607 1039.51 910.548 1038.98 910.49 1038.51 910.431 1037.98 910.49 1038.33 910.431 1038.69 910.431 1039.04 910.49 1038.57 910.548 1038.04 910.607 1037.57 910.548 1038.04 910.431 1038.45 910.255 1038.92 910.431 1038.45 910.607 1037.98 910.841 1037.51 910.665 1037.98 910.372 1038.45 910.079 1038.86 910.372 1038.45 910.665 1038.04 911.017 1037.63 910.665 1038.16 910.197 1038.57 909.728 1038.98 910.138 1038.69 910.548 1038.33 910.958 1038.04 910.49 1038.39 910.021 1038.69 909.435 1038.92 909.904 1038.75 910.431 1038.51 910.9 1038.33 910.372 1038.51 909.904 1038.69 909.376 1038.75 909.904 1038.69 910.372 1038.63 910.9 1038.57 910.49 1038.63 910.079 1038.63 909.669 1038.57 910.138 1038.63 910.665 1038.69 911.134 1038.75 910.724 1038.69 910.372 1038.57 910.021 1038.45 910.49 1038.63 910.958 1038.8 911.427 1039.04 911.134 1038.92 910.841 1038.75 910.548 1038.51 910.958 1038.8 911.368 1039.1 911.779 1039.45 911.486 1039.21 911.251 1038.98 911.017 1038.75 911.31 1039.16 911.661 1039.57 911.954 1039.98 911.661 1039.62 911.427 1039.21 911.251 1038.8 911.427 1039.27 911.661 1039.8 911.837 1040.27 911.72 1039.92 911.603 1039.51 911.544 1039.1 911.603 1039.62 911.661 1040.09 911.72 1040.62 911.661 1040.27 911.661 1039.92 911.72 1039.57 911.661 1040.03 911.603 1040.56 911.544 1041.03 911.603 1040.68 911.661 1040.39 911.779 1040.03 911.603 1040.5 911.427 1040.97 911.193 1041.44 911.368 1041.09 911.544 1040.74 911.779 1040.44 911.486 1040.85 911.193 1041.26 910.841 1041.67 911.134 1041.32 911.427 1041.03 911.779 1040.74 911.368 1041.03 910.958 1041.38 910.548 1041.67 910.841 1041.44 911.193 1041.26 911.544 1041.09 911.075 1041.26 910.548 1041.5 910.079 1041.67 910.372 1041.56 910.724 1041.5 911.017 1041.44 911.837 1041.26 912.482 1040.91 913.068 1040.39 913.712 1039.98 914.239 1039.39 914.591 1038.69 915.294 1037.46 915.587 1035.7 915.177 1034.29 914.708 1032.83 913.829 1031.42 912.423 1030.66 911.954 1030.48 911.486 1030.31 911.017 1030.07 910.197 1029.72 909.2 1029.72 908.204 1029.96ZM1067.58 1025.04C1066.88 1025.15 1066.23 1025.33 1065.59 1025.62 1064.83 1025.92 1064.06 1026.21 1063.42 1026.56 1062.72 1026.97 1062.01 1027.5 1061.43 1028.03 1060.55 1028.73 1059.79 1029.67 1059.32 1030.66 1059.03 1031.31 1058.62 1032.07 1058.5 1032.83 1058.38 1033.59 1058.21 1034.41 1058.26 1035.23 1058.38 1036.87 1058.73 1038.34 1059.61 1039.8 1060.49 1041.27 1061.55 1042.26 1062.95 1043.26 1063.83 1043.9 1065 1044.37 1066.06 1044.61 1066.82 1044.72 1067.58 1044.9 1068.34 1044.84 1069.16 1044.78 1069.98 1044.72 1070.8 1044.49 1071.92 1044.2 1073.09 1043.73 1074.03 1043.03 1074.67 1042.56 1075.31 1042.09 1075.9 1041.5 1076.49 1040.92 1076.96 1040.21 1077.48 1039.51 1078.19 1038.57 1078.6 1037.46 1079.01 1036.35 1079.12 1035.99 1079.24 1035.7 1079.3 1035.35 1079.42 1034.59 1079.59 1033.77 1079.59 1032.95 1079.59 1031.25 1079.18 1029.72 1078.42 1028.2 1078.36 1028.03 1078.24 1027.91 1078.19 1027.79 1077.83 1027.26 1077.42 1026.74 1077.01 1026.33 1076.49 1025.74 1075.78 1025.27 1075.08 1024.86 1074.14 1024.33 1073.32 1024.1 1072.27 1023.98 1071.1 1023.81 1070.51 1023.86 1069.22 1024.1 1068.69 1024.22 1068.23 1024.39 1067.7 1024.63 1067.17 1024.86 1066.64 1025.04 1066.12 1025.39 1064.65 1026.38 1063.54 1027.44 1062.6 1028.96 1061.72 1030.43 1061.43 1032.01 1061.25 1033.65 1061.19 1034.47 1061.31 1035.29 1061.43 1036.11 1061.55 1036.76 1061.72 1037.28 1061.96 1037.87 1062.42 1038.98 1062.78 1039.57 1063.65 1040.56 1064.18 1041.21 1064.89 1041.68 1065.59 1042.09 1066.88 1042.79 1068.52 1043.03 1069.98 1042.67 1071.39 1042.32 1072.91 1041.21 1073.62 1039.92 1074.32 1038.57 1074.67 1036.99 1074.2 1035.53 1073.73 1034 1072.85 1032.71 1071.45 1031.89 1071.33 1031.83 1071.27 1031.78 1071.15 1031.72 1071.56 1032.01 1071.98 1032.3 1072.39 1032.65 1072.21 1032.54 1072.03 1032.36 1071.92 1032.19 1072.21 1032.6 1072.56 1033.01 1072.85 1033.42 1072.68 1033.18 1072.56 1033.01 1072.44 1032.71 1072.62 1033.18 1072.85 1033.71 1073.03 1034.18 1072.91 1033.83 1072.8 1033.53 1072.8 1033.18 1072.85 1033.71 1072.91 1034.18 1072.97 1034.7 1072.91 1034.29 1072.91 1033.88 1072.97 1033.47 1072.91 1033.94 1072.85 1034.47 1072.8 1034.94 1072.85 1034.59 1072.97 1034.24 1073.09 1033.88 1072.91 1034.35 1072.74 1034.82 1072.5 1035.29 1072.62 1034.94 1072.8 1034.65 1073.03 1034.35 1072.74 1034.76 1072.44 1035.17 1072.09 1035.58 1072.33 1035.23 1072.62 1034.94 1072.97 1034.7 1072.56 1035 1072.15 1035.35 1071.74 1035.64 1072.03 1035.41 1072.39 1035.17 1072.8 1035.06 1072.33 1035.23 1071.8 1035.47 1071.33 1035.64 1071.56 1035.53 1071.86 1035.47 1072.09 1035.41 1071.56 1035.47 1071.1 1035.53 1070.57 1035.58 1070.8 1035.53 1071.1 1035.53 1071.33 1035.58 1070.86 1035.53 1070.33 1035.47 1069.87 1035.41 1070.04 1035.47 1070.22 1035.47 1070.39 1035.53 1069.92 1035.35 1069.46 1035.17 1068.99 1034.94 1069.16 1035 1069.34 1035.11 1069.46 1035.23 1069.05 1034.94 1068.64 1034.65 1068.23 1034.29 1068.4 1034.47 1068.58 1034.59 1068.75 1034.82 1068.46 1034.41 1068.11 1034 1067.81 1033.59 1067.93 1033.77 1068.05 1034 1068.17 1034.24 1067.99 1033.77 1067.76 1033.24 1067.58 1032.77 1067.7 1033.06 1067.76 1033.42 1067.81 1033.77 1067.76 1033.24 1067.7 1032.77 1067.64 1032.24 1067.7 1032.65 1067.7 1033.12 1067.64 1033.53 1067.7 1033.06 1067.76 1032.54 1067.81 1032.07 1067.76 1032.6 1067.58 1033.12 1067.4 1033.59 1067.58 1033.12 1067.76 1032.65 1067.99 1032.19 1067.76 1032.77 1067.46 1033.3 1067.05 1033.83 1067.35 1033.42 1067.64 1033.01 1067.99 1032.6 1067.64 1033.06 1067.23 1033.47 1066.82 1033.83 1067.23 1033.53 1067.64 1033.18 1068.05 1032.89 1067.7 1033.18 1067.29 1033.42 1066.82 1033.59 1067.29 1033.42 1067.81 1033.18 1068.28 1033.01 1067.93 1033.12 1067.58 1033.24 1067.17 1033.3 1067.7 1033.24 1068.17 1033.18 1068.69 1033.12 1068.34 1033.18 1068.05 1033.18 1067.7 1033.12 1068.17 1033.18 1068.69 1033.24 1069.16 1033.3 1068.81 1033.24 1068.52 1033.18 1068.23 1033.06 1068.69 1033.24 1069.16 1033.42 1069.63 1033.65 1069.28 1033.53 1068.99 1033.3 1068.69 1033.12 1069.1 1033.42 1069.51 1033.71 1069.92 1034.06 1069.57 1033.83 1069.28 1033.53 1069.05 1033.18 1069.34 1033.59 1069.69 1034 1069.98 1034.41 1069.75 1034.12 1069.57 1033.83 1069.4 1033.47 1069.57 1033.94 1069.81 1034.47 1069.98 1034.94 1069.87 1034.65 1069.75 1034.35 1069.75 1034 1069.81 1034.53 1069.87 1035 1069.92 1035.53 1069.87 1035.23 1069.87 1034.94 1069.92 1034.7 1069.87 1035.17 1069.81 1035.7 1069.75 1036.17 1069.81 1035.88 1069.87 1035.58 1069.98 1035.35 1069.81 1035.82 1069.63 1036.29 1069.4 1036.76 1069.51 1036.46 1069.63 1036.23 1069.81 1035.99 1069.51 1036.4 1069.22 1036.81 1068.87 1037.22 1069.1 1036.87 1069.4 1036.64 1069.69 1036.35 1069.28 1036.64 1068.87 1036.99 1068.46 1037.28 1068.87 1036.93 1069.4 1036.7 1069.87 1036.46 1069.4 1036.64 1068.87 1036.87 1068.4 1037.05 1069.05 1036.76 1069.75 1036.58 1070.45 1036.46 1071.27 1036.29 1071.92 1035.94 1072.5 1035.41 1073.15 1035 1073.67 1034.41 1074.03 1033.71 1074.73 1032.48 1075.02 1030.72 1074.61 1029.31 1074.14 1027.85 1073.26 1026.44 1071.86 1025.68 1071.39 1025.51 1070.92 1025.33 1070.45 1025.1 1069.57 1024.8 1068.58 1024.8 1067.58 1025.04ZM943.359 1190.63C985.371 1207.32 1032.83 1188.63 1054.39 1149.49 1058.03 1142.87 1047.89 1137.07 1044.2 1143.69 1024.98 1178.61 983.671 1194.14 946.406 1179.32 939.375 1176.5 936.386 1187.87 943.359 1190.63Z"></path>
  <path fill="#31DECD" d="M1557.07 1221.5C1649.12 1209.55 1742.58 1208.26 1834.92 1217.75C1857.19 1220.03 1885.78 1229.99 1884.55 1252.32C1884.03 1262.16 1877.23 1270.54 1875.18 1280.15C1869.32 1307.87 1902.07 1326.91 1929.38 1334.64C2068.3 1374.02 2216.78 1369.15 2355.88 1408.12C2380.49 1415.03 2410.61 1434.78 2400.88 1458.45C2392.03 1479.78 2356.82 1480.66 2349.9 1502.69C2346.56 1513.35 2351.6 1524.84 2358.22 1533.86C2378.26 1561.17 2411.43 1575.17 2443.6 1585.78C2530.43 1614.43 2622.13 1627.9 2706.56 1663.06C2729.06 1672.44 2754.03 1687.73 2755.14 1712.05C2755.9 1728.22 2745.18 1742.81 2732.58 1753C2693.56 1784.58 2638.95 1784.58 2589.14 1790.8C2539.34 1796.95 2482.8 1817.92 2468.91 1866.15C2464.05 1883.14 2465.16 1901.83 2457.25 1917.65C2445.94 1940.15 2419.81 1950.29 2395.55 1956.97C2338.3 1972.73 2278.6 1979.82 2219.24 1977.77C2171.55 1976.13 2118.87 1970.09 2080.72 1998.8C2029.81 2037.12 2034.03 2112.94 2014.75 2173.71C1993.3 2241.32 1937.46 2295.17 1871.96 2322.48C1806.45 2349.78 1732.39 2352.12 1662.83 2338.12C1621 2329.68 1579.05 2314.74 1547.81 2285.62C1508.5 2249 1490.98 2195.03 1478.26 2142.83C1436.72 1972.26 1430.33 1793.2 1459.69 1620.05C1481.84 1488.63 1524.26 1361.54 1557.07 1221.5Z"></path>
  <path fill="#203752" d="M1634.76 1860.12C1636.23 1762.39 1637.75 1664.65 1639.22 1566.92 1640.21 1500.06 1641.27 1433.21 1646.48 1366.59 1666.17 1116.8 1746.21 872.056 1877.99 658.95 1659.32 810.942 1519.22 1053.4 1422.48 1302.78 1388.14 1391.31 1358.26 1482.37 1340.86 1566.86 1394.76 1648.36 1456.17 1724.95 1524.02 1795.26 1537.26 1808.97 1550.86 1822.56 1567.03 1832.64 1585.66 1844.07 1607.28 1850.69 1634.76 1860.12ZM1456.47 793.825C1574.71 709.919 1717.5 661.052 1862.35 654.958 1856.02 601.052 1806.8 558.63 1753.36 549.255 1699.92 539.88 1644.61 558.688 1599.67 589.04 1530.47 635.739 1481.08 710.739 1456.47 793.825ZM1888.94 666.029C1938.46 702.943 1964.94 764.76 1970.8 826.225 1976.66 887.689 1964.06 949.447 1947.77 1009.04 2026.87 938.314 2090.51 841.986 2093.14 735.932 2094.14 696.264 2082.95 660.522 2032.44 642.533 1983.75 625.189 1926.03 635.971 1888.94 666.029Z"></path>
  <path fill="#203752" d="M1895.22 638.084C1930.96 606.678 1977.72 588.045 2025.29 586.287 2049.84 585.408 2075.16 589.041 2096.54 601.17 2117.93 613.299 2134.86 634.686 2137.56 659.119 2150.33 639.725 2159.83 618.104 2165.51 595.545 2169.38 580.018 2171.49 563.67 2168.32 547.967 2159.94 506.307 2114.88 479.178 2072.4 480.467 2029.92 481.756 1991.02 505.604 1960.2 534.9 1930.55 563.084 1906.29 596.893 1895.22 638.084ZM1878.22 620.74C1896.56 578.67 1906.93 533.084 1908.63 487.205 1909.63 460.662 1905.88 430.428 1884.49 414.608 1875.76 408.104 1864.98 404.94 1854.2 403.24 1801.76 395.096 1745.62 424.275 1722.19 471.912 1761.09 456.033 1809.26 466.404 1838.2 496.873 1869.08 529.393 1876 577.264 1878.22 620.74Z"></path>
  <path fill="#1B81A6" d="M1889.41 2400.29C1783.65 2564.06 1679.12 2467.2 1609.75 2356.05C1558.89 2274.78 1526.84 2185.89 1526.84 2185.89L1576.93 1933.65C1576.93 1933.65 1709.77 1501.4 2206.7 1143.22C2206.7 1143.22 2238.63 1859.59 1889.41 2400.29Z"></path>
  <path fill="#FFC5A6" d="M891.679 1366.11C891.679 1366.11 577.148 1383.98 376.289 1677.77C175.43 1971.56 179.297 2344.04 362.754 2443.82C546.211 2543.61 783.34 2538.57 1086.09 2538.57C1388.85 2538.57 1478.09 2526.15 1478.09 2526.15C1478.09 2526.15 1460.57 2460.35 1387.68 2433.98L1399.8 2282.4C1399.8 2282.4 1431.5 2473.77 1615.25 2527.85C1799 2581.93 2172.01 2511.5 2172.01 2511.5L2122.38 2314.45C2122.38 2314.45 1879.92 2370.82 1756.52 2247.36C1633.07 2123.9 1748.32 1831.75 1560.12 1590.41C1366.82 1342.38 1074.08 1366.11 891.679 1366.11Z"></path>
  <path fill="#1B81A6" d="M1388.91 2434.33C1401.74 2291.89 1415.22 2078.32 1415.22 1922.52C1260.94 1740.52 1274.89 1481.6 1276.47 1390.78C1235.16 1375.66 1192.21 1366.4 1148.91 1364.06C1132.97 1444.86 1077.19 1512.83 1004.53 1545.35C926.194 1512.71 866.428 1443.81 846.155 1363.88C798.987 1370.21 753.284 1383.69 710.1 1405.72C713.44 1522.32 716.604 1640.56 688.479 1753.77C675.94 1804.22 656.194 1854.78 622.444 1890.52C609.67 1998.51 590.217 2105.68 562.151 2210.56C704.065 2238.45 842.288 2284.68 972.424 2347.79C1001.66 2361.97 1030.73 2377.09 1061.72 2386.87C1169.36 2420.62 1284.85 2388.92 1388.91 2434.33Z"></path>
  <path fill="#203752" d="M2529.96 2555.86C2609.59 2344.86 2695.02 2110.07 2774.65 1899.08C2532.83 1899.08 2253.05 1895.97 2008.07 1898.67C1937.35 2096.07 1864.4 2288.55 1788.69 2479.86C1527.19 2479.86 1271.6 2487.53 1017.77 2487.53C1009.92 2520.41 1000.02 2552.22 993.107 2598.04C1120.78 2598.1 2217.48 2555.86 2529.96 2555.86Z"></path>
  <path fill="#1B81A6" d="M2347.6 2245.84C2368.16 2193.07 2361 2141.01 2331.6 2129.56C2302.21 2118.1 2261.71 2151.59 2241.15 2204.35C2220.58 2257.11 2227.74 2309.17 2257.14 2320.63C2286.54 2332.08 2327.04 2298.6 2347.6 2245.84Z"></path>
  <path fill="#203752" d="M839.706 1371.04C861.21 1432.68 901.932 1486.47 955.253 1524.14 968.026 1533.16 982.616 1543.59 997.499 1548.69 1012.21 1553.73 1028.08 1540.49 1039.69 1532.75 1066.58 1514.82 1090.14 1492.32 1109.47 1466.49 1131.62 1436.9 1147.91 1403.15 1157.05 1367.29 1158.92 1359.96 1147.62 1356.91 1145.74 1364.24 1130.8 1422.89 1095.82 1475.86 1047.71 1512.72 1035.99 1521.68 1023.34 1530.47 1009.98 1536.8 1002.24 1540.49 994.335 1534.34 987.596 1530.65 980.741 1526.84 974.061 1522.74 967.557 1518.4 942.186 1501.52 919.569 1480.55 900.409 1456.88 879.022 1430.45 862.264 1400.22 851.073 1368.11 848.553 1361.02 837.186 1363.89 839.706 1371.04ZM620.509 1866.38C613.712 1981.99 590.86 2096.36 552.892 2205.76 550.431 2212.9 561.739 2215.89 564.2 2208.8 602.52 2098.47 625.431 1983.04 632.228 1866.44 632.638 1858.88 620.919 1858.88 620.509 1866.38Z"></path>
  <path fill="#203752" d="M530.685 2212.33C658.712 2232.54 783.751 2270.74 900.939 2326.12 956.779 2352.54 1011.39 2384.01 1072.03 2398.36 1104.08 2405.92 1136.95 2407.03 1169.71 2409.03 1203.63 2411.13 1237.5 2414.42 1271.19 2418.93 1307.7 2423.79 1345.84 2428.19 1381.11 2439.2 1412.87 2449.16 1438.65 2469.96 1453.24 2500.08 1456.52 2506.88 1466.66 2500.96 1463.38 2494.22 1451.49 2469.61 1431.56 2449.1 1407.01 2436.92 1378.3 2422.68 1345.2 2418.46 1313.91 2413.42 1280.33 2407.97 1246.52 2403.69 1212.66 2400.59 1178.79 2397.48 1144.69 2396.9 1110.88 2393.15 1045.2 2385.88 986.603 2354.94 928.185 2326.29 870.294 2297.87 810.587 2273.26 749.298 2253.05 678.927 2229.85 606.74 2212.44 533.556 2200.96 526.349 2199.85 523.244 2211.15 530.685 2212.33ZM1738.3 2140.14C1801 2010.06 1863.05 1879.69 1924.34 1748.97 1941.62 1712.11 1958.85 1675.25 1976.01 1638.34 1979.18 1631.54 1969.04 1625.68 1965.82 1632.54 1904.94 1763.44 1843.3 1894.04 1780.96 2024.3 1763.38 2061.04 1745.74 2097.72 1728.1 2134.34 1724.88 2141.08 1735.02 2146.93 1738.3 2140.14ZM1995.06 1597.62C2050.6 1479.5 2106.91 1361.72 2163.98 1244.36 2180.04 1211.31 2196.15 1178.33 2212.38 1145.34 2215.66 1138.6 2205.53 1132.74 2202.19 1139.54 2144.71 1256.72 2087.93 1374.26 2031.97 1492.21 2016.21 1525.38 2000.51 1558.6 1984.92 1591.88 1981.7 1598.62 1991.84 1604.48 1995.06 1597.62ZM1694.88 1415.39C1725.82 1422.48 1758.57 1416.27 1784.47 1397.87 1782.54 1397.87 1780.6 1397.87 1778.61 1397.87 1801.46 1413.28 1828.59 1421.02 1856.13 1420.08 1863.69 1419.85 1863.75 1408.13 1856.19 1408.36 1830.47 1409.24 1805.74 1402.09 1784.41 1387.68 1782.83 1386.62 1780.13 1386.62 1778.55 1387.68 1755.11 1404.32 1725.94 1410.47 1697.87 1404.03 1690.6 1402.38 1687.56 1413.69 1694.88 1415.39ZM2224.57 1682.87C2260.37 1684.92 2296.11 1674.02 2324.59 1652.16 2322.66 1652.16 2320.72 1652.16 2318.73 1652.16 2358.75 1682.34 2415.59 1685.62 2459.06 1660.89 2457.13 1660.89 2455.19 1660.89 2453.2 1660.89 2487.77 1675.19 2525.1 1679.23 2561.95 1672.44 2569.39 1671.09 2566.41 1659.72 2559.02 1661.07 2536.17 1665.29 2512.56 1665.11 2489.82 1660.19 2484.73 1659.08 2479.75 1657.79 2474.77 1656.26 2469.43 1654.62 2463.11 1650.93 2457.71 1650.05 2453.85 1649.47 2450.74 1652.1 2447.46 1653.8 2443.01 1656.03 2438.44 1657.96 2433.75 1659.49 2396.95 1671.85 2355.53 1665.23 2324.59 1641.85 2323.12 1640.8 2320.19 1640.8 2318.73 1641.85 2291.78 1662.59 2258.67 1672.96 2224.63 1671.03 2217.07 1670.68 2217.07 1682.46 2224.57 1682.87ZM2290.72 1769.54C2326.76 1780.79 2366.66 1775.34 2398.42 1754.83 2396.07 1754.54 2393.73 1754.24 2391.38 1753.95 2423.96 1789.81 2475.82 1780.08 2515.95 1765.08 2522.99 1762.45 2520.06 1751.08 2513.03 1753.72 2476.81 1767.19 2429.35 1778.27 2399.65 1745.57 2398.01 1743.75 2394.67 1743.34 2392.61 1744.69 2363.32 1763.68 2327.17 1768.66 2293.83 1758.23 2286.56 1755.94 2283.57 1767.25 2290.72 1769.54Z"></path>
</svg>
