<?xml version="1.0" encoding="UTF-8"?>
<svg xmlns="http://www.w3.org/2000/svg" id="a" width="865.76" height="682.89" viewBox="0 0 865.76 682.89">
  <g>
    <path d="M202.01,82.14c-14.93,0-31.46-2.37-46.7-9.81-1.74,.81-15.69,7-33.37,7.01-11.24,0-23.98-2.5-36.05-10.49l-.18-.12V30.29h238.7v39.48l-.13,.12c-.26,.23-26.18,23.01-74.56,4.83-1.9,.65-22.5,7.42-47.71,7.42Zm-46.69-10.69l.18,.09c41.77,20.49,93.58,2.57,94.1,2.38l.14-.05,.14,.05c46.25,17.44,71.71-2.79,73.75-4.51V31.09H86.52v37.21c31.79,20.87,68.26,3.41,68.63,3.23l.18-.09Z" fill="#002346"></path>
    <path d="M202.01,89.34c-14.93,0-31.46-2.37-46.7-9.81-1.74,.81-15.69,7-33.37,7.01-11.24,0-23.98-2.5-36.05-10.49l-.18-.12v-7.42h.8v6.98c31.79,20.87,68.26,3.41,68.63,3.23l.18-.09,.18,.09c41.77,20.49,93.58,2.57,94.1,2.38l.14-.05,.14,.05c46.25,17.44,71.71-2.79,73.75-4.51v-7.02h.8v7.38l-.13,.12c-.26,.23-26.18,23.01-74.56,4.83-1.9,.65-22.5,7.42-47.71,7.42Z" fill="#002346"></path>
    <path d="M202.01,98.94c-14.93,0-31.46-2.37-46.7-9.81-1.74,.81-15.69,7-33.37,7.01-11.24,0-23.98-2.5-36.05-10.49l-.18-.12v-9.82h.8v9.38c31.79,20.87,68.26,3.41,68.63,3.23l.18-.09,.18,.09c41.77,20.49,93.58,2.57,94.1,2.38l.14-.05,.14,.05c46.25,17.44,71.71-2.79,73.75-4.51v-9.42h.8v9.78l-.13,.12c-.26,.23-26.18,23.01-74.56,4.83-1.9,.65-22.5,7.42-47.71,7.42Z" fill="#002346"></path>
    <polygon points="312.7 379.51 95.99 379.51 95.99 90.48 96.79 90.48 96.79 378.71 311.9 378.71 311.9 93.19 312.7 93.19 312.7 379.51" fill="#002346"></polygon>
    <polygon points="292.81 349.91 115.89 349.91 115.89 95.58 116.69 95.58 116.69 349.11 292.01 349.11 292.01 97.92 292.81 97.92 292.81 349.91" fill="#002346"></polygon>
    <rect x="116.29" y="111.55" width="176.13" height=".8" fill="#002346"></rect>
    <rect x="116.29" y="190.76" width="176.13" height=".8" fill="#002346"></rect>
    <rect x="117.09" y="269.96" width="176.13" height=".8" fill="#002346"></rect>
    <rect x="174.37" y="95.58" width=".8" height="253.93" fill="#002346"></rect>
    <rect x="236.47" y="95.58" width=".8" height="253.93" fill="#002346"></rect>
    <rect x="88.51" y="363.91" width="35.66" height=".8" transform="translate(-255.28 249.14) rotate(-56.06)" fill="#002346"></rect>
    <rect x="301.96" y="346.48" width=".8" height="35.66" transform="translate(-151.78 230.52) rotate(-33.89)" fill="#002346"></rect>
  </g>
  <rect x="484.71" y="87.75" width="83.06" height="100.75" fill="#ebebeb"></rect>
  <rect x="494.2" y="96.95" width="64.08" height="82.36" fill="#fff"></rect>
  <rect x="494.2" y="96.95" width="2.5" height="82.36" fill="#dbdbdb"></rect>
  <rect x="567.79" y="87.75" width="2.5" height="100.75" fill="#dbdbdb"></rect>
  <rect x="515.68" y="108.3" width="15.1" height="45.02" fill="#dbdbdb"></rect>
  <path d="M550.16,161.78h-41.88v-23.6h41.88v23.6Zm-40.32-1.55h38.74v-20.5h-38.74v20.5Z" fill="#ebebeb"></path>
  <rect x="724.57" y="96.95" width="2.5" height="82.36" fill="#dbdbdb"></rect>
  <rect x="599.89" y="87.75" width="83.06" height="100.75" fill="#ebebeb"></rect>
  <rect x="609.38" y="96.95" width="64.08" height="82.36" fill="#fff"></rect>
  <rect x="609.38" y="96.95" width="2.5" height="82.36" fill="#dbdbdb"></rect>
  <rect x="682.96" y="87.75" width="2.5" height="100.75" fill="#dbdbdb"></rect>
  <rect x="635.21" y="118.24" width="12.95" height="32.74" fill="#ebebeb"></rect>
  <path d="M662.58,161.46h-36.33v-24.12h36.33v24.12Zm-34.77-1.55h33.22v-21h-33.23v21Z" fill="#dbdbdb"></path>
  <g>
    <path d="M772,134.76v-1c0-3.74-.61-7.46-1.81-11l7.25-4.21-7-12.06-7.32,4.26c-2.73-3.01-5.97-5.52-9.57-7.4l2.27-8.58-13.48-3.57-2.22,8.37c-.79,0-1.6-.08-2.41-.08-3.25,0-6.48,.45-9.6,1.36l-4.53-7.9-12.06,7,4.29,7.38c-3.44,2.86-6.29,6.36-8.38,10.31l-8.76-2.33-3.57,13.48,8.44,2.24c-.07,.88-.1,1.77-.1,2.67,0,3.62,.56,7.23,1.69,10.67l-7.46,4.33,7,12.06,7.4-4.3c3.02,3.41,6.69,6.19,10.8,8.17l-2.08,7.86,13.48,3.57,2.14-8.09h1.31c4.12,0,8.2-.73,12.06-2.18l4,6.91,12.06-7-4.26-7.34c2.98-2.87,5.41-6.26,7.19-10l7.7,2,3.57-13.48-8.04-2.12Zm-34.29,22.38c-12.94,0-23.43-10.49-23.43-23.43s10.49-23.43,23.43-23.43c12.94,0,23.43,10.49,23.43,23.43s-10.49,23.43-23.43,23.43h0Z" fill="#002346"></path>
    <path d="M734.63,176.67l-14.45-3.83,2.1-7.95c-3.91-1.94-7.38-4.56-10.31-7.8l-7.48,4.35-7.5-12.92,7.54-4.38c-1.06-3.38-1.6-6.89-1.59-10.44,0-.8,.02-1.56,.07-2.29l-8.52-2.26,3.83-14.45,8.86,2.36c2.04-3.76,4.73-7.06,7.99-9.84l-4.33-7.45,12.93-7.5,4.59,8c3.03-.84,6.16-1.27,9.31-1.27,.44,0,.86,.02,1.29,.04,.26,.01,.52,.03,.78,.03l2.25-8.48,14.45,3.83-2.3,8.68c3.41,1.83,6.46,4.19,9.08,7.02l7.4-4.31,7.5,12.93-7.33,4.26c1.14,3.48,1.71,7.1,1.71,10.77v.61l8.15,2.15-3.82,14.44-7.78-2.02c-1.73,3.54-4.03,6.73-6.83,9.5l4.32,7.44-12.92,7.5-4.04-6.98c-3.79,1.37-7.75,2.07-11.79,2.07h-.97l-2.17,8.2Zm-13.22-4.54l12.51,3.31,2.11-7.98h1.74c4.06,0,8.04-.72,11.83-2.15l.4-.15,3.96,6.84,11.19-6.5-4.21-7.25,.28-.27c2.95-2.84,5.33-6.16,7.08-9.85l.18-.37,7.62,1.98,3.31-12.52-7.93-2.09v-1.39c0-3.69-.59-7.34-1.78-10.84l-.13-.39,7.17-4.16-6.5-11.19-7.24,4.21-.27-.3c-2.7-2.98-5.87-5.43-9.43-7.29l-.35-.19,2.25-8.48-12.51-3.31-2.19,8.26h-.38c-.4,0-.81-.02-1.21-.04-.41-.02-.81-.04-1.24-.04-3.19,0-6.35,.45-9.41,1.34l-.38,.11-4.48-7.81-11.19,6.5,4.25,7.31-.33,.27c-3.41,2.83-6.19,6.25-8.26,10.16l-.19,.35-8.66-2.3-3.31,12.51,8.36,2.22-.03,.42c-.07,.84-.1,1.7-.1,2.63,0,3.58,.55,7.11,1.67,10.51l.12,.38-7.38,4.28,6.5,11.19,7.32-4.25,.27,.31c2.99,3.38,6.57,6.09,10.64,8.05l.37,.18-2.06,7.78Zm16.31-14.49c-13.2,0-23.93-10.73-23.93-23.93s10.73-23.93,23.93-23.93,23.93,10.73,23.93,23.93-10.74,23.93-23.93,23.93Zm0-46.86c-12.64,0-22.93,10.29-22.93,22.93s10.29,22.93,22.93,22.93,22.93-10.29,22.93-22.93-10.29-22.93-22.93-22.93Z" fill="#002346"></path>
  </g>
  <g>
    <path d="M680.89,619.36c-4.13,.92-8.43,.72-12.45-.58-9.34-2.56-14.46,1.3-14.46,1.3l-9.61-26.32,36.2-8.54,6.48,18.59c-13.15,3.36-6.16,15.55-6.16,15.55Z" fill="#f2b3c1"></path>
    <path d="M653.75,620.88l-.23-.63-9.8-26.85,37.19-8.77,6.81,19.53-.53,.13c-3.64,.93-6.01,2.64-7.04,5.07-1.84,4.35,1.16,9.69,1.19,9.75l.34,.59-.66,.15c-4.21,.94-8.61,.73-12.71-.59-8.95-2.45-13.96,1.19-14.01,1.22l-.54,.4Zm8.49-3.49c1.83,0,3.95,.25,6.34,.9,3.75,1.21,7.73,1.45,11.57,.71-.78-1.6-2.6-6.07-.93-10.02,1.11-2.62,3.52-4.47,7.19-5.51l-6.15-17.66-35.21,8.31,9.2,25.2c1.1-.65,3.81-1.92,7.99-1.92Z" fill="#002346"></path>
  </g>
  <g>
    <path d="M735.68,616.71s-3.11,3.7-21,11.13c0,0-41.73,19.66-53.69,18.48,0,0-10.8-22.8-7-26.24,0,0,5.12-3.86,14.46-1.3,4.02,1.3,8.32,1.5,12.45,.58,0,0-7-12.19,6.16-15.55,0,0,4.74,8.85,14.4,9.18-.01,0,28.86-3.14,34.22,3.72Z" fill="#FF9100"></path>
    <path d="M662.11,646.87c-.41,0-.8-.02-1.16-.05l-.28-.03-.12-.26c-1.12-2.37-10.84-23.24-6.88-26.82,.25-.19,5.46-4.01,14.93-1.41,3.75,1.21,7.73,1.45,11.57,.71-.78-1.6-2.6-6.07-.93-10.02,1.16-2.74,3.76-4.65,7.72-5.66l.38-.1,.19,.34c.05,.09,4.73,8.6,13.98,8.92h0c2.76-.35,29.25-2.93,34.6,3.91l.25,.32-.26,.31c-.13,.15-3.39,3.88-21.19,11.27-1.64,.77-39.57,18.57-52.77,18.57Zm-.78-1.02c12.05,.83,52.74-18.26,53.15-18.46,14.79-6.14,19.41-9.71,20.53-10.71-5.83-6.13-33.2-3.23-33.48-3.19-8.79-.3-13.67-7.43-14.7-9.1-3.44,.95-5.69,2.62-6.68,4.98-1.84,4.36,1.16,9.69,1.19,9.74l.34,.59-.66,.15c-4.21,.94-8.61,.73-12.71-.59-8.95-2.45-13.96,1.19-14.01,1.22-2.53,2.29,2.77,16.32,7.03,25.37Z" fill="#002346"></path>
  </g>
  <g>
    <path d="M729.88,627.59l-64.3,25c-3.4,.25-4.63-6.26-4.63-6.26,12,1.18,53.69-18.48,53.69-18.48,17.89-7.43,21-11.13,21-11.13,8.48,7.34-5.76,10.87-5.76,10.87Z" fill="#002346"></path>
    <path d="M665.39,653.1c-3.62,0-4.87-6.4-4.93-6.67l-.12-.66,.66,.07c11.72,1.14,53.01-18.24,53.43-18.43,17.46-7.25,20.8-10.97,20.83-11l.33-.38,.38,.32c2.27,1.97,3.2,3.89,2.76,5.72-.95,3.96-8.08,5.85-8.7,6.01l-64.34,25.02h-.07c-.08,.01-.16,.01-.23,.01Zm-3.8-6.22c.48,1.92,1.81,5.3,3.89,5.22l64.29-24.99c.07-.02,7.17-1.82,8-5.28,.32-1.35-.38-2.83-2.1-4.42-1.22,1.11-5.94,4.72-20.83,10.91-1.63,.77-39.53,18.57-52.77,18.57-.17,0-.33,0-.48,0Z" fill="#002346"></path>
  </g>
  <g>
    <path d="M568.58,440.67s46.09-3.14,57,14.58l69.27,122-52.36,30.64-48.77-97.12-25.14-70.1Z" fill="#e6e1d1"></path>
    <path d="M642.29,608.59l-49.01-97.6-25.39-70.78,.66-.04c1.9-.13,46.52-2.96,57.46,14.82l69.52,122.44-53.25,31.16Zm-73.01-167.46l24.92,69.47,48.51,96.59,51.47-30.12-69.03-121.57c-9.92-16.1-50.19-14.65-55.87-14.37Z" fill="#002346"></path>
  </g>
  <g>
    <polygon points="642.49 607.88 634.15 591.28 685.27 560.4 694.85 577.28 642.49 607.88" fill="#FF9100"></polygon>
    <path d="M642.29,608.58l-8.79-17.49,51.96-31.38,10.08,17.76-53.25,31.12Zm-7.48-17.11l7.89,15.71,51.47-30.08-9.08-16-50.28,30.38Z" fill="#002346"></path>
  </g>
  <g>
    <path d="M289.95,347.98s-24.81-10.32-36.89,34c0,0-54.48,151.82-4.08,225.93,0,0,9.92,25.33,139.7,26.76,0,0,156.35,1.66,203.27-26,0,0,22.14-8,20.23-57.73l-43.6-82.47-158.74-24-119.89-96.49Z" fill="#fff"></path>
    <path d="M392.92,635.19c-2.61,0-4.1-.01-4.24-.01-126.87-1.4-139.42-25.36-140.14-27.02-26.1-38.42-23.6-97.92-16.91-141.07,7.24-46.73,20.83-84.89,20.96-85.27,4.72-17.31,11.92-28.46,21.39-33.1,8.65-4.23,15.86-1.32,16.16-1.19l.12,.07,119.78,96.41,158.86,24.02,.12,.22,43.65,82.57v.11c1.91,49.53-19.64,57.89-20.56,58.22-42.09,24.82-173.81,26.04-199.2,26.04Zm-109.29-287.73c-2.6,0-5.82,.49-9.24,2.17-9.19,4.51-16.21,15.44-20.85,32.49-.15,.42-13.7,38.5-20.93,85.14-6.66,42.99-9.16,102.24,16.78,140.38l.05,.1c.1,.25,11.71,25.04,139.24,26.44,1.56,.02,156.75,1.34,203.01-25.93,.3-.12,21.82-8.56,19.99-57.17l-43.43-82.15-158.62-23.98-.11-.08-119.83-96.44c-.4-.15-2.72-.97-6.06-.97Z" fill="#002346"></path>
  </g>
  <g>
    <path d="M335.58,324.59l-24.94,1.43s-26.58,4.43-20.54,39.87c0,0,10.07,42.29,28.59,72.09,0,0,2.82,9.26,24.17,10.06,0,0,28.59,43.5,51.14,35.44,0,0-.6-14.29,35.84-31l35-27.78-17.7-17.71c-.09-.09,.01-.24,.13-.19l28.65,12.33,19.53-5.72,4.88-21.83s-36.24-19.3-52.75-33.8l-15.3-12.88s-31.82-23.32-53.57-17.32l-43.13-3Z" fill="#FF9100"></path>
    <path d="M388.1,484.99c-20.68,0-43.27-33.1-45.51-36.46-20.52-.84-24.03-9.41-24.35-10.34-18.33-29.53-28.52-71.76-28.62-72.19-2.11-12.4-.53-22.4,4.7-29.76,6.4-8.99,15.84-10.66,16.24-10.72l25.02-1.44h.03s43.04,3,43.04,3c21.73-5.91,52.61,16.47,53.92,17.42l15.33,12.9c16.28,14.3,52.3,33.55,52.66,33.74l.34,.18-5.03,22.49-19.99,5.85-26.97-11.61,16.67,16.68-35.54,28.19c-35.58,16.32-35.55,30.39-35.55,30.53v.36s-.33,.12-.33,.12c-1.99,.71-4.02,1.04-6.07,1.04Zm-52.52-159.9l-24.91,1.43s-9.4,1.67-15.55,10.32c-5.07,7.13-6.59,16.87-4.53,28.96,.09,.39,10.26,42.52,28.52,71.91l.05,.12c.03,.09,3.05,8.93,23.71,9.71h.26s.14,.23,.14,.23c.28,.43,28.37,42.67,50.23,35.35,.16-2.44,2.61-15.72,36.07-31.07l34.51-27.39-17.3-17.31c-.21-.21-.24-.54-.07-.78,.17-.25,.48-.34,.75-.22l28.48,12.26,19.07-5.59,4.73-21.17c-3.71-2-36.99-20.06-52.51-33.69l-15.29-12.87c-.29-.21-31.84-23.09-53.12-17.22l-.08,.02h-.09s-43.1-3-43.1-3Z" fill="#002346"></path>
  </g>
  <g>
    <path d="M439.92,444.45l50.75-12.15,4.83-18.93s-12.49-1.77-27.79,5.76c0,0-10.07,6.19-27.79,5.25v20.07Z" fill="#f2b3c1"></path>
    <path d="M439.42,445.09v-21.23l.53,.03c17.33,.92,27.4-5.12,27.5-5.18,15.3-7.53,27.99-5.85,28.12-5.83l.55,.08-5.04,19.76-51.66,12.37Zm1-20.18v18.91l49.84-11.93,4.61-18.08c-2.58-.22-13.77-.71-26.94,5.77-.06,.04-10.18,6.11-27.51,5.33Z" fill="#002346"></path>
  </g>
  <g>
    <path d="M692.43,538.59l-35.44,45.5c-3.9-2.39-7.83-4.83-11.79-7.32-17.46-11-35.47-23-53.85-36.17-17-12.15-33-24.28-47.93-36.24-104.3,12.08-149.41-20.95-149.41-20.95,.81-17.72,35.84-31,35.84-31l4.23-3.35,61.42-11.66h69l91.28,72.19,23.13,18.3,13.52,10.7Z" fill="#e6e1d1"></path>
    <path d="M657.11,584.75l-.38-.23c-3.87-2.37-7.84-4.84-11.79-7.32-18.53-11.68-36.66-23.85-53.88-36.19-16.5-11.79-32.58-23.95-47.79-36.13-53.85,6.21-91.6,.18-113.8-5.98-24.12-6.69-35.64-15-35.75-15.08l-.22-.16v-.27c.82-17.61,33.85-30.56,36.1-31.42l4.27-3.38,61.54-11.68h69.27s.14,.1,.14,.1l128.32,101.5-36.02,46.24Zm-113.54-80.91l.16,.13c15.24,12.21,31.36,24.4,47.91,36.22,17.2,12.33,35.31,24.49,53.83,36.15,3.82,2.4,7.66,4.78,11.4,7.08l34.86-44.76-127.41-100.77h-68.83l-61.21,11.63-4.27,3.35c-.35,.13-34.37,13.23-35.5,30.28,3.55,2.42,49.62,32.19,148.84,20.7l.21-.02Z" fill="#002346"></path>
  </g>
  <g>
    <path d="M692.43,538.59l-35.44,45.5c-3.9-2.39-7.83-4.83-11.79-7.32l33.71-48.88,13.52,10.7Z" fill="#FF9100"></path>
    <path d="M657.11,584.75l-.38-.23c-3.87-2.37-7.84-4.84-11.79-7.32l-.44-.28,.3-.43,34.01-49.32,14.33,11.34-36.02,46.24Zm-11.2-8.13c3.68,2.31,7.36,4.59,10.96,6.81l34.86-44.76-12.71-10.06-33.11,48.01Z" fill="#002346"></path>
  </g>
  <g>
    <path d="M710.96,571.24c-2.75,3.44-6.37,6.08-10.48,7.65-9.26,4-10.87,10.47-10.87,10.47l-25.11-14.88,23.73-30.47,17.49,10.72c-8.46,11.27,5.24,16.51,5.24,16.51Z" fill="#f2b3c1"></path>
    <path d="M689.94,590.13l-26.18-15.51,24.35-31.27,18.34,11.24-.33,.44c-2.34,3.11-3.14,6.02-2.38,8.65,1.36,4.73,7.34,7.07,7.4,7.09l.64,.25-.43,.53c-2.8,3.5-6.5,6.2-10.69,7.8-8.91,3.85-10.55,10.06-10.56,10.12l-.16,.65Zm-24.69-15.79l24.09,14.27c.66-1.76,3.16-6.81,10.95-10.18,3.84-1.47,7.23-3.88,9.87-6.99-1.67-.77-6.13-3.18-7.37-7.47-.81-2.82-.07-5.87,2.22-9.09l-16.65-10.2-23.11,29.67Z" fill="#002346"></path>
  </g>
  <g>
    <path d="M753.64,533.38s-.09,5-9.71,22.64c0,0-20.89,43-31.36,49.85,0,0-23.76-11.27-23-16.51,0,0,1.61-6.44,10.87-10.47,4.11-1.57,7.73-4.21,10.48-7.65,0,0-13.7-5.24-5.24-16.51,0,0,9.67,4,17.72-2,.04-.02,21.38-21.36,30.24-19.35Z" fill="#FF9100"></path>
    <path d="M712.61,606.44l-.25-.12c-2.47-1.17-24.07-11.59-23.28-17.03,.08-.32,1.79-6.78,11.17-10.86,3.84-1.47,7.23-3.88,9.87-7-1.67-.77-6.13-3.18-7.37-7.47-.85-2.95,0-6.15,2.54-9.53l.23-.31,.36,.15c.09,.04,9.51,3.82,17.23-1.94l.06-.06c3.64-3.57,22.25-21.26,30.59-19.38l.4,.09v.41c-.01,.21-.21,5.32-9.78,22.87-.84,1.74-21.06,43.18-31.53,50.03l-.23,.15Zm-6.75-51.11c-2.17,3-2.89,5.81-2.16,8.36,1.36,4.73,7.34,7.06,7.4,7.09l.64,.24-.43,.53c-2.8,3.5-6.5,6.2-10.69,7.8-8.88,3.86-10.55,10.06-10.56,10.13-.5,3.49,13.06,11.33,22.47,15.81,10.31-7.17,30.75-49.07,30.95-49.49,7.93-14.54,9.35-20.48,9.61-22.01-6.26-.79-19.57,9.74-29.23,19.19-.15,.15-.16,.16-.23,.19-7.22,5.39-15.88,2.81-17.76,2.15Z" fill="#002346"></path>
  </g>
  <g>
    <path d="M756.06,545.87l-35.62,62c-2.6,2.41-7.87-2-7.87-2,10.47-6.84,31.36-49.85,31.36-49.85,9.62-17.63,9.71-22.64,9.71-22.64,11.68,.4,2.42,12.49,2.42,12.49Z" fill="#002346"></path>
    <path d="M718.49,609.09c-2.81,0-6.06-2.69-6.24-2.84l-.52-.43,.56-.37c10.23-6.69,30.98-49.22,31.18-49.65,9.39-17.21,9.66-22.38,9.66-22.43l.02-.5h.5c3.13,.12,5.13,1.07,5.96,2.82,1.79,3.8-2.75,9.94-3.14,10.46l-35.64,62.04-.06,.05c-.66,.61-1.46,.85-2.29,.85Zm-5.08-3.2c1.65,1.23,4.95,3.12,6.64,1.66l35.62-61.98c.05-.06,4.63-6.12,3.05-9.45-.62-1.31-2.18-2.05-4.63-2.21-.25,1.67-1.69,7.64-9.72,22.36-.83,1.71-20.35,41.74-30.96,49.63Z" fill="#002346"></path>
  </g>
  <g>
    <path d="M244.42,625.2c0,8.9-32.72,16.11-73.09,16.11s-73.1-7.21-73.1-16.11c.06-1.22,.59-2.37,1.47-3.22,6.77-7.35,36.26-12.89,71.63-12.89s64.86,5.54,71.63,12.89c.88,.85,1.4,2,1.46,3.22Z" fill="#e6e7e8"></path>
    <path d="M171.33,641.81c-41.27,0-73.6-7.3-73.6-16.61,.07-1.38,.65-2.64,1.62-3.58,6.95-7.54,37.22-13.03,71.98-13.03s65.03,5.49,72,13.05c.96,.92,1.53,2.18,1.59,3.54v.02c0,9.31-32.32,16.61-73.59,16.61Zm0-32.22c-34.5,0-64.47,5.35-71.26,12.73-.82,.78-1.28,1.81-1.34,2.91,0,8.44,33.25,15.58,72.6,15.58s72.56-7.14,72.59-15.6c-.05-1.09-.52-2.11-1.31-2.87-6.81-7.4-36.78-12.75-71.28-12.75Z" fill="#002346"></path>
  </g>
  <g>
    <path d="M210.41,217.59l18-19.6-18.71-17.14c-5.41-4.96-13.82-4.59-18.78,.82,0,0,0,0,0,0h0c-4.96,5.41-4.59,13.82,.82,18.78,0,0,0,0,0,0l6.26,5.73-80.8,198.73h-5.9v-6.44c0-.89-.72-1.61-1.61-1.61s-1.61,.72-1.61,1.61v6.44h-1c-2.11,.11-3.74,1.91-3.63,4.02,.1,1.96,1.67,3.53,3.63,3.63h1v9.27c0,.89,.72,1.61,1.61,1.61s1.61-.72,1.61-1.61h0v-9.24h5.43l50.15,201.74h10.5l-50.4-206,78.95-194.89,4.48,4.15Z" fill="#fff"></path>
    <path d="M178.02,614.83h-11.53l-.09-.38-50.05-201.36h-4.54v8.74c0,1.16-.95,2.11-2.11,2.11s-2.11-.95-2.11-2.11v-8.77h-.5c-2.25-.11-4.01-1.88-4.13-4.1-.06-1.15,.33-2.26,1.11-3.12,.78-.86,1.84-1.36,2.99-1.42h.53v-5.94c0-1.16,.95-2.11,2.11-2.11s2.11,.95,2.11,2.11v5.94h5.06l80.54-198.1-6-5.5c-5.61-5.14-5.99-13.88-.85-19.49,5.14-5.61,13.88-5.99,19.49-.85l19.08,17.48-18.68,20.34-4.32-4-78.62,194.07,50.51,206.46Zm-10.75-1h9.47l-50.29-205.54,79.28-195.71,4.64,4.3,17.32-18.86-18.34-16.8c-5.2-4.77-13.3-4.41-18.07,.79-4.77,5.2-4.42,13.31,.78,18.07l6.52,5.97-.13,.32-80.93,199.04h-6.74v-6.94c0-.61-.5-1.11-1.11-1.11s-1.11,.5-1.11,1.11v6.94h-1.5c-.86,.04-1.68,.43-2.28,1.09-.6,.66-.9,1.51-.85,2.4,.09,1.71,1.44,3.07,3.16,3.16h1.47s0,9.77,0,9.77c0,.61,.5,1.11,1.11,1.11s1.11-.5,1.11-1.11v-9.74h6.32l.09,.38,50.05,201.36Z" fill="#002346"></path>
  </g>
  <g>
    <path d="M335.58,294.49v28.18c-.01,5.36,2.7,10.36,7.21,13.26,4.76,3.05,12.3,6,23.83,6.16,0,0,15.7,1.61,12.08-14.5l-3.22-20.54-39.9-12.56Z" fill="#f2b3c1"></path>
    <path d="M367.82,342.64c-.71,0-1.17-.04-1.24-.05-9.69-.13-17.8-2.23-24.05-6.24-4.67-3.01-7.45-8.13-7.44-13.68v-28.86l40.85,12.86,3.27,20.85c1.13,5.01,.52,8.9-1.81,11.52-2.83,3.19-7.38,3.61-9.57,3.61Zm-31.73-47.47v27.5c-.01,5.22,2.6,10.01,6.98,12.84,6.09,3.9,14.02,5.95,23.57,6.08,.11,.01,6.61,.62,10.01-3.22,2.1-2.37,2.63-5.96,1.57-10.67l-3.18-20.27-38.95-12.26Z" fill="#002346"></path>
  </g>
  <g>
    <path d="M322.67,278.46l11.08-4.28h0l8.57,22.16h0l-11.08,4.28c-6.12,2.37-13-.68-15.36-6.8h0c-2.37-6.12,.68-13,6.8-15.36h0Z" fill="#f2b3c1"></path>
    <path d="M326.95,301.93c-1.7,0-3.4-.36-5.01-1.07-3.02-1.34-5.35-3.77-6.54-6.86-1.19-3.08-1.11-6.45,.23-9.47,1.34-3.02,3.77-5.35,6.86-6.54l11.55-4.46,8.93,23.1-11.55,4.46c-1.45,.56-2.96,.84-4.47,.84Zm-4.1-23c-5.85,2.26-8.78,8.86-6.51,14.72,2.26,5.85,8.87,8.78,14.72,6.51l10.62-4.1-8.21-21.23-10.61,4.1Z" fill="#002346"></path>
  </g>
  <g>
    <rect x="428.24" y="414.98" width="11.68" height="37.45" fill="#fff"></rect>
    <path d="M440.42,452.93h-12.68v-38.45h12.68v38.45Zm-11.68-1h10.68v-36.45h-10.68v36.45Z" fill="#002346"></path>
  </g>
  <g>
    <path d="M439.92,449.06l55.58-11.64h89.7c2.66,0,4.98-1.82,5.61-4.41l21.11-86.36c1.21-4.95-1.82-9.94-6.77-11.15-.73-.18-1.48-.27-2.23-.26h-83.58c-3.12,0-5.83,2.14-6.56,5.17l-22.11,91.89-50.75,12.15v4.61Z" fill="#fff"></path>
    <path d="M439.42,449.68v-5.62l50.84-12.17,22.04-91.59c.79-3.27,3.68-5.55,7.05-5.55h83.58c.8-.01,1.58,.09,2.35,.28,2.52,.62,4.65,2.18,6,4.4,1.35,2.22,1.75,4.83,1.13,7.35l-21.11,86.36c-.68,2.82-3.19,4.79-6.09,4.79h-89.65l-56.13,11.76Zm1-4.83v3.6l55.08-11.52h89.7c2.44,0,4.55-1.66,5.12-4.03l21.11-86.36c.55-2.26,.19-4.6-1.02-6.6-1.21-1.99-3.12-3.39-5.38-3.95-.69-.17-1.38-.25-2.11-.25h-83.58c-2.9,0-5.4,1.97-6.07,4.79l-22.18,92.19-50.66,12.13Z" fill="#002346"></path>
  </g>
  <g>
    <ellipse cx="555.1" cy="383.37" rx="8.86" ry="8.66" transform="translate(-35.45 709.5) rotate(-63.54)" fill="#002346"></ellipse>
    <path d="M554.94,392.7c-1.38,0-2.74-.32-4-.95-4.52-2.25-6.33-7.84-4.03-12.46h0c2.3-4.62,7.85-6.55,12.37-4.3,4.52,2.25,6.33,7.84,4.03,12.46-1.11,2.24-3.01,3.92-5.35,4.73-.99,.35-2.01,.52-3.02,.52Zm-7.14-12.96h0c-2.05,4.13-.45,9.12,3.58,11.12,1.95,.97,4.17,1.11,6.25,.38,2.09-.73,3.78-2.23,4.78-4.23,2.05-4.13,.45-9.11-3.58-11.12-4.03-2.01-8.98-.28-11.03,3.85Z" fill="#002346"></path>
  </g>
  <g>
    <path d="M215.58,263.96s-33.43-31-3.23-67.66c0,0,25.78-28.19,61.22-6l-57.99,73.66Z" fill="#e6e1d1"></path>
    <path d="M215.64,264.7l-.4-.37c-.34-.31-33.43-31.74-3.28-68.34,.28-.3,26.49-28.26,61.87-6.11l.47,.3-58.67,74.52Zm30.71-82.34c-20.23,0-33.44,14.08-33.63,14.28-15.42,18.72-13.75,35.91-9.62,47.03,3.92,10.58,10.74,17.85,12.44,19.54l57.3-72.78c-9.65-5.93-18.6-8.07-26.49-8.07Z" fill="#002346"></path>
  </g>
  <g>
    <ellipse cx="245.31" cy="228.04" rx="47.26" ry="11.03" transform="translate(-85.01 283.44) rotate(-52.43)" fill="#fff"></ellipse>
    <path d="M218.52,266.62c-.89,0-1.68-.22-2.33-.72-5.72-4.4,5.67-26.28,19.98-44.89,14.31-18.61,32.54-35.23,38.26-30.83,5.72,4.4-5.67,26.28-19.98,44.89-7.72,10.04-15.89,18.77-23.02,24.6-4.13,3.38-9.34,6.94-12.92,6.94Zm53.62-76.13c-5.74,0-19.94,11.35-35.17,31.14h0c-17.05,22.17-24.2,40.38-20.17,43.48,2.1,1.62,7.2-.64,14-6.21,7.07-5.78,15.18-14.46,22.86-24.44,17.05-22.17,24.2-40.38,20.17-43.48-.43-.33-1-.5-1.69-.5Z" fill="#002346"></path>
  </g>
  <g>
    <circle cx="247.82" cy="228.12" r="9.26" fill="#e6e1d1"></circle>
    <path d="M247.82,237.88c-5.38,0-9.76-4.38-9.76-9.76s4.38-9.76,9.76-9.76,9.76,4.38,9.76,9.76-4.38,9.76-9.76,9.76Zm0-18.52c-4.83,0-8.76,3.93-8.76,8.76s3.93,8.76,8.76,8.76,8.76-3.93,8.76-8.76-3.93-8.76-8.76-8.76Z" fill="#002346"></path>
  </g>
  <g>
    <rect x="418.58" y="30.29" width="324.39" height="249.48" rx="14.14" ry="14.14" fill="#fff"></rect>
    <path d="M728.83,280.27H432.72c-8.07,0-14.64-6.57-14.64-14.64V44.43c0-8.07,6.57-14.64,14.64-14.64h296.11c8.07,0,14.64,6.57,14.64,14.64v221.2c0,8.07-6.57,14.64-14.64,14.64ZM432.72,30.79c-7.52,0-13.64,6.12-13.64,13.64v221.2c0,7.52,6.12,13.64,13.64,13.64h296.11c7.52,0,13.64-6.12,13.64-13.64V44.43c0-7.52-6.12-13.64-13.64-13.64H432.72Z" fill="#002346"></path>
  </g>
  <g>
    <path d="M742.97,44.44v29H418.58v-29c0-7.81,6.33-14.14,14.14-14.15h296.11c7.81,0,14.14,6.34,14.14,14.15Z" fill="#FF9100"></path>
    <path d="M743.47,73.94H418.08v-29.5c0-8.07,6.57-14.64,14.64-14.65h296.11c8.07,0,14.64,6.58,14.64,14.65v29.5Zm-324.39-1h323.39v-28.5c0-7.52-6.12-13.64-13.64-13.65H432.72c-7.52,0-13.64,6.13-13.64,13.65v28.5Z" fill="#002346"></path>
  </g>
  <g>
    <circle cx="442.07" cy="51.24" r="6.98" fill="#fff"></circle>
    <path d="M442.07,58.72c-4.12,0-7.48-3.36-7.48-7.48s3.36-7.48,7.48-7.48,7.48,3.36,7.48,7.48-3.36,7.48-7.48,7.48Zm0-13.96c-3.57,0-6.48,2.91-6.48,6.48s2.91,6.48,6.48,6.48,6.48-2.91,6.48-6.48-2.91-6.48-6.48-6.48Z" fill="#002346"></path>
  </g>
  <g>
    <circle cx="466.19" cy="51.24" r="6.98" fill="#fff"></circle>
    <path d="M466.19,58.72c-4.12,0-7.48-3.36-7.48-7.48s3.36-7.48,7.48-7.48,7.48,3.36,7.48,7.48-3.36,7.48-7.48,7.48Zm0-13.96c-3.57,0-6.48,2.91-6.48,6.48s2.91,6.48,6.48,6.48,6.48-2.91,6.48-6.48-2.91-6.48-6.48-6.48Z" fill="#002346"></path>
  </g>
  <g>
    <circle cx="490.31" cy="51.24" r="6.98" fill="#fff"></circle>
    <path d="M490.31,58.72c-4.12,0-7.48-3.36-7.48-7.48s3.36-7.48,7.48-7.48,7.48,3.36,7.48,7.48-3.36,7.48-7.48,7.48Zm0-13.96c-3.57,0-6.48,2.91-6.48,6.48s2.91,6.48,6.48,6.48,6.48-2.91,6.48-6.48-2.91-6.48-6.48-6.48Z" fill="#002346"></path>
  </g>
  <path d="M715.67,58.72c-.13,0-.26-.05-.35-.15-.2-.2-.2-.51,0-.71l12.07-12.06c.2-.2,.51-.2,.71,0s.2,.51,0,.71l-12.07,12.06c-.1,.1-.23,.15-.35,.15Z" fill="#002346"></path>
  <path d="M727.74,58.72c-.13,0-.26-.05-.35-.15l-12.07-12.06c-.2-.19-.2-.51,0-.71s.51-.2,.71,0l12.07,12.06c.2,.19,.2,.51,0,.71-.1,.1-.23,.15-.35,.15Z" fill="#002346"></path>
  <g>
    <rect x="616.64" y="100.12" width="69.83" height="71.1" fill="#FF9100"></rect>
    <path d="M686.97,171.72h-70.83V99.62h70.83v72.1Zm-69.83-1h68.83V100.62h-68.83v70.1Z" fill="#002346"></path>
  </g>
  <g>
    <polygon points="621.72 166.14 643.31 126.78 654.73 152.18 663.62 138.21 681.39 166.14 621.72 166.14" fill="#e6e1d1"></polygon>
    <path d="M682.31,166.64h-61.43l22.48-40.98,11.45,25.47,8.81-13.85,18.68,29.36Zm-59.74-1h57.91l-16.86-26.5-8.97,14.09-11.39-25.33-20.7,37.74Z" fill="#002346"></path>
  </g>
  <g>
    <circle cx="656.64" cy="121.07" r="4.44" fill="#fff"></circle>
    <path d="M656.64,126.01c-2.72,0-4.94-2.22-4.94-4.94s2.22-4.94,4.94-4.94,4.94,2.22,4.94,4.94-2.22,4.94-4.94,4.94Zm0-8.88c-2.17,0-3.94,1.77-3.94,3.94s1.77,3.94,3.94,3.94,3.94-1.77,3.94-3.94-1.77-3.94-3.94-3.94Z" fill="#002346"></path>
  </g>
  <g>
    <polygon points="452.86 135.67 452.86 145.83 493.49 164.87 493.49 153.45 465.56 140.75 494.76 130.59 494.76 117.9 452.86 135.67" fill="#002346"></polygon>
    <path d="M493.99,165.66l-41.63-19.51v-10.81l42.9-18.19v13.8l-28.36,9.87,27.09,12.32v12.53Zm-40.63-20.14l39.63,18.57v-10.31l-28.77-13.08,30.04-10.45v-11.58l-40.9,17.35v9.51Z" fill="#002346"></path>
  </g>
  <g>
    <polygon points="567.13 147.1 567.13 136.94 526.5 117.9 526.5 129.32 554.43 142.02 525.23 152.18 525.23 164.87 567.13 147.1" fill="#002346"></polygon>
    <path d="M524.73,165.63v-13.8l28.36-9.87-27.09-12.32v-12.53l41.63,19.51v10.81l-42.9,18.19Zm1-13.09v11.58l40.9-17.35v-9.51l-39.63-18.57v10.31l28.77,13.08-30.04,10.45Z" fill="#002346"></path>
  </g>
  <g>
    <polygon points="497.3 171.22 507.45 171.22 522.69 110.28 512.53 110.28 497.3 171.22" fill="#002346"></polygon>
    <path d="M507.84,171.72h-11.18l15.48-61.94h11.19l-15.49,61.94Zm-9.9-1h9.12l14.99-59.94h-9.13l-14.98,59.94Z" fill="#002346"></path>
  </g>
  <g>
    <rect x="449.05" y="209.31" width="55.86" height="6.35" fill="#002346"></rect>
    <path d="M505.41,216.16h-56.86v-7.35h56.86v7.35Zm-55.86-1h54.86v-5.35h-54.86v5.35Z" fill="#002346"></path>
  </g>
  <g>
    <rect x="449.05" y="241.05" width="44.44" height="6.35" fill="#002346"></rect>
    <path d="M493.99,247.9h-45.44v-7.35h45.44v7.35Zm-44.44-1h43.44v-5.35h-43.44v5.35Z" fill="#002346"></path>
  </g>
  <g>
    <rect x="512.53" y="241.05" width="44.44" height="6.35" fill="#002346"></rect>
    <path d="M557.47,247.9h-45.44v-7.35h45.44v7.35Zm-44.44-1h43.44v-5.35h-43.44v5.35Z" fill="#002346"></path>
  </g>
  <g>
    <rect x="592.52" y="241.05" width="44.44" height="6.35" fill="#002346"></rect>
    <path d="M637.46,247.9h-45.44v-7.35h45.44v7.35Zm-44.44-1h43.44v-5.35h-43.44v5.35Z" fill="#002346"></path>
  </g>
  <g>
    <rect x="656" y="241.05" width="44.44" height="6.35" fill="#002346"></rect>
    <path d="M700.94,247.9h-45.44v-7.35h45.44v7.35Zm-44.44-1h43.44v-5.35h-43.44v5.35Z" fill="#002346"></path>
  </g>
  <g>
    <rect x="449.05" y="225.82" width="26.66" height="6.35" fill="#002346"></rect>
    <path d="M476.21,232.67h-27.66v-7.35h27.66v7.35Zm-26.66-1h25.66v-5.35h-25.66v5.35Z" fill="#002346"></path>
  </g>
  <g>
    <rect x="478.25" y="225.82" width="8.89" height="6.35" fill="#002346"></rect>
    <path d="M487.64,232.67h-9.89v-7.35h9.89v7.35Zm-8.89-1h7.89v-5.35h-7.89v5.35Z" fill="#002346"></path>
  </g>
  <g>
    <rect x="512.53" y="225.82" width="26.66" height="6.35" fill="#002346"></rect>
    <path d="M539.69,232.67h-27.66v-7.35h27.66v7.35Zm-26.66-1h25.66v-5.35h-25.66v5.35Z" fill="#002346"></path>
  </g>
  <g>
    <rect x="541.73" y="225.82" width="8.89" height="6.35" fill="#002346"></rect>
    <path d="M551.12,232.67h-9.89v-7.35h9.89v7.35Zm-8.89-1h7.89v-5.35h-7.89v5.35Z" fill="#002346"></path>
  </g>
  <g>
    <rect x="592.52" y="225.82" width="26.66" height="6.35" fill="#002346"></rect>
    <path d="M619.68,232.67h-27.66v-7.35h27.66v7.35Zm-26.66-1h25.66v-5.35h-25.66v5.35Z" fill="#002346"></path>
  </g>
  <g>
    <rect x="621.72" y="225.82" width="8.89" height="6.35" fill="#002346"></rect>
    <path d="M631.11,232.67h-9.89v-7.35h9.89v7.35Zm-8.89-1h7.89v-5.35h-7.89v5.35Z" fill="#002346"></path>
  </g>
  <g>
    <rect x="657.27" y="225.82" width="26.66" height="6.35" fill="#002346"></rect>
    <path d="M684.43,232.67h-27.66v-7.35h27.66v7.35Zm-26.66-1h25.66v-5.35h-25.66v5.35Z" fill="#002346"></path>
  </g>
  <g>
    <rect x="686.47" y="225.82" width="8.89" height="6.35" fill="#002346"></rect>
    <path d="M695.86,232.67h-9.89v-7.35h9.89v7.35Zm-8.89-1h7.89v-5.35h-7.89v5.35Z" fill="#002346"></path>
  </g>
  <g>
    <rect x="512.53" y="209.31" width="55.86" height="6.35" fill="#002346"></rect>
    <path d="M568.89,216.16h-56.86v-7.35h56.86v7.35Zm-55.86-1h54.86v-5.35h-54.86v5.35Z" fill="#002346"></path>
  </g>
  <g>
    <rect x="592.52" y="209.31" width="55.86" height="6.35" fill="#002346"></rect>
    <path d="M648.88,216.16h-56.86v-7.35h56.86v7.35Zm-55.86-1h54.86v-5.35h-54.86v5.35Z" fill="#002346"></path>
  </g>
  <g>
    <rect x="656" y="209.31" width="55.86" height="6.35" fill="#002346"></rect>
    <path d="M712.36,216.16h-56.86v-7.35h56.86v7.35Zm-55.86-1h54.86v-5.35h-54.86v5.35Z" fill="#002346"></path>
  </g>
  <g>
    <rect x="283.16" y="89.39" width="110.02" height="81.11" rx="6.72" ry="6.72" fill="#e6e1d1"></rect>
    <path d="M386.46,171h-96.58c-3.98,0-7.22-3.24-7.22-7.22V96.11c0-3.98,3.24-7.22,7.22-7.22h96.58c3.98,0,7.22,3.24,7.22,7.22v67.67c0,3.98-3.24,7.22-7.22,7.22Zm-96.58-81.11c-3.43,0-6.22,2.79-6.22,6.22v67.67c0,3.43,2.79,6.22,6.22,6.22h96.58c3.43,0,6.22-2.79,6.22-6.22V96.11c0-3.43-2.79-6.22-6.22-6.22h-96.58Z" fill="#002346"></path>
  </g>
  <path d="M301.5,119.76c1.16-2.07,2.86-3.77,4.93-4.93,2.14-1.19,4.55-1.8,7-1.77,2.84-.07,5.64,.75,8,2.33,2.28,1.55,3.96,3.82,4.78,6.45h-6.26c-.55-1.22-1.47-2.24-2.62-2.91-1.19-.68-2.54-1.02-3.91-1-1.48-.03-2.94,.36-4.22,1.11-1.24,.75-2.23,1.83-2.87,3.13-1.37,3.01-1.37,6.46,0,9.47,.63,1.31,1.63,2.4,2.87,3.15,1.28,.75,2.74,1.14,4.22,1.11,1.37,.03,2.72-.32,3.91-1,1.15-.69,2.07-1.72,2.62-2.94h6.26c-.8,2.64-2.48,4.92-4.76,6.47-2.36,1.58-5.16,2.39-8,2.32-2.45,.03-4.86-.58-7-1.77-2.06-1.16-3.77-2.86-4.93-4.92-1.23-2.18-1.86-4.65-1.81-7.15-.04-2.5,.57-4.97,1.79-7.15Z" fill="#002346"></path>
  <path d="M351.2,129.07h-7.35v7.52h-5.13v-7.55h-7.35v-4.74h7.35v-7.51h5.13v7.54h7.35v4.74Z" fill="#002346"></path>
  <path d="M377.41,129.07h-7.35v7.52h-5.13v-7.55h-7.35v-4.74h7.35v-7.51h5.13v7.54h7.35v4.74Z" fill="#002346"></path>
  <g>
    <rect x="642.27" y="291.76" width="107.95" height="85.29" rx="14.88" ry="14.88" fill="#FF9100"></rect>
    <path d="M735.34,377.55h-78.19c-8.48,0-15.38-6.9-15.38-15.38v-55.53c0-8.48,6.9-15.38,15.38-15.38h78.19c8.48,0,15.38,6.9,15.38,15.38v55.53c0,8.48-6.9,15.38-15.38,15.38Zm-78.19-85.29c-7.93,0-14.38,6.45-14.38,14.38v55.53c0,7.93,6.45,14.38,14.38,14.38h78.19c7.93,0,14.38-6.45,14.38-14.38v-55.53c0-7.93-6.45-14.38-14.38-14.38h-78.19Z" fill="#002346"></path>
  </g>
  <path d="M676.67,335.09c-.99,1.77-2.5,3.19-4.31,4.1-2.3,1.12-4.84,1.65-7.4,1.56h-6.08v13.92h-7.3v-36.26h13.35c2.47-.07,4.92,.43,7.16,1.46,1.85,.85,3.4,2.25,4.45,4,1.94,3.48,1.98,7.71,.1,11.22h.03Zm-7.56-1.59c1.03-1.03,1.57-2.46,1.47-3.91,0-3.53-1.98-5.3-5.93-5.29h-5.77v10.54h5.76c1.61,.14,3.21-.34,4.47-1.34Z" fill="#fff"></path>
  <path d="M713.26,318.41v36.26h-7.27v-15.43h-15.53v15.43h-7.27v-36.26h7.27v14.91h15.53v-14.91h7.27Z" fill="#fff"></path>
  <path d="M745.5,335.09c-1,1.77-2.5,3.2-4.32,4.1-2.3,1.12-4.84,1.65-7.4,1.56h-6.07v13.92h-7.28v-36.26h13.35c2.47-.07,4.92,.43,7.17,1.46,1.85,.85,3.4,2.25,4.44,4,1,1.75,1.51,3.74,1.48,5.76,0,1.91-.46,3.78-1.37,5.46Zm-7.56-1.59c1.02-1.02,1.55-2.43,1.45-3.87,0-3.53-1.97-5.3-5.92-5.29h-5.76v10.54h5.76c1.61,.13,3.21-.36,4.47-1.38Z" fill="#fff"></path>
  <rect x="651.06" y="94.11" width="1" height="84.39" transform="translate(94.45 500.64) rotate(-45)" fill="#002346"></rect>
  <rect x="609.27" y="135.67" width="84.58" height="1" transform="translate(95.56 502.14) rotate(-45.16)" fill="#002346"></rect>
  <polygon points="622.22 112.47 621.22 112.47 621.22 105.97 627.72 105.94 627.73 106.94 622.22 106.97 622.22 112.47" fill="#002346"></polygon>
  <path d="M622.22,150.59h-1v-9.53h1v9.53Zm0-19.06h-1v-9.53h1v9.53Z" fill="#002346"></path>
  <polygon points="627.72 166.64 621.22 166.64 621.22 160.14 622.22 160.14 622.22 165.64 627.72 165.64 627.72 166.64" fill="#002346"></polygon>
  <path d="M665.85,166.64h-9.53v-1h9.53v1Zm-19.06,0h-9.53v-1h9.53v1Z" fill="#002346"></path>
  <polygon points="681.89 166.64 675.39 166.64 675.39 165.64 680.89 165.64 680.89 160.14 681.89 160.14 681.89 166.64" fill="#002346"></polygon>
  <path d="M681.89,150.55h-1v-9.59h1v9.59Zm0-19.18h-1v-9.59h1v9.59Z" fill="#002346"></path>
  <polygon points="681.89 112.2 680.89 112.2 680.89 106.7 675.4 106.73 675.39 105.73 681.89 105.7 681.89 112.2" fill="#002346"></polygon>
  <path d="M637.28,106.9v-1s9.53-.04,9.53-.04v1s-9.53,.04-9.53,.04Zm19.06-.09v-1s9.53-.04,9.53-.04v1s-9.53,.04-9.53,.04Z" fill="#002346"></path>
  <g>
    <rect x="678.85" y="103.93" width="5.08" height="5.08" fill="#fff"></rect>
    <path d="M684.43,109.51h-6.08v-6.08h6.08v6.08Zm-5.08-1h4.08v-4.08h-4.08v4.08Z" fill="#002346"></path>
  </g>
  <g>
    <rect x="619.18" y="103.93" width="5.08" height="5.08" fill="#fff"></rect>
    <path d="M624.76,109.51h-6.08v-6.08h6.08v6.08Zm-5.08-1h4.08v-4.08h-4.08v4.08Z" fill="#002346"></path>
  </g>
  <g>
    <rect x="678.85" y="163.6" width="5.08" height="5.08" fill="#fff"></rect>
    <path d="M684.43,169.18h-6.08v-6.08h6.08v6.08Zm-5.08-1h4.08v-4.08h-4.08v4.08Z" fill="#002346"></path>
  </g>
  <g>
    <rect x="619.18" y="163.6" width="5.08" height="5.08" fill="#fff"></rect>
    <path d="M624.76,169.18h-6.08v-6.08h6.08v6.08Zm-5.08-1h4.08v-4.08h-4.08v4.08Z" fill="#002346"></path>
  </g>
  <g>
    <rect x="331.78" y="231.12" width="61.66" height="85.08" rx="30.83" ry="30.83" transform="translate(-47.99 79.29) rotate(-11.71)" fill="#f2b3c1"></rect>
    <path d="M364.93,316.46c-6.04,0-11.96-1.76-17.13-5.15-7-4.59-11.78-11.64-13.48-19.83l-4.75-22.93c-1.7-8.19-.1-16.56,4.49-23.56,4.59-7,11.64-11.78,19.83-13.48l.1,.49-.1-.49c16.91-3.51,33.53,7.4,37.04,24.32l4.75,22.93c1.7,8.19,.1,16.56-4.49,23.56-4.59,7-11.64,11.78-19.83,13.48-2.14,.44-4.29,.66-6.42,.66Zm-4.68-84.61c-2.03,0-4.1,.21-6.16,.63-7.93,1.64-14.75,6.28-19.2,13.05-4.45,6.77-5.99,14.87-4.35,22.8l4.75,22.93c1.64,7.93,6.28,14.75,13.05,19.2,6.77,4.45,14.87,5.99,22.8,4.35,7.93-1.64,14.75-6.28,19.2-13.05,4.45-6.77,5.99-14.87,4.35-22.8l-4.75-22.93c-2.97-14.31-15.62-24.18-29.69-24.18Z" fill="#002346"></path>
  </g>
  <g>
    <path d="M318.45,281.24s-8.61-4.39-7.4-16.47l-3.22,3.22s-4.83-20.54,9.26-33.43c0,0-4-4-.4-12.08,2.71-4.12,6.2-7.66,10.27-10.44,0,0-2.22,4.8-1.81,7.62,0,0,11.82-17.65,37.72-7.62,0,0,15.84,9.63,31.14,8-2.39,3-5.61,5.25-9.26,6.45,0,0,22.07,14.18,6.4,33.06l-.74-3.61s-.44-1.83-.83-3.16c0,0-4.43,1.49-7.65-3.74,0,0-22.15,1.21-28.59-2.42-.16,2.04,.97,3.97,2.82,4.84,0,0-10.07,4.83-19.33,.8,2.67,11.5,1.8,23.53-2.5,34.51-.07,.19-.36,.15-.38-.05-.45-4.49-4.1-7.88-15.5-5.48Z" fill="#002346"></path>
    <path d="M334.15,287.39s-.06,0-.1,0c-.32-.04-.57-.3-.6-.62-.19-1.88-.95-3.32-2.27-4.29-2.4-1.76-6.65-2.01-12.63-.75l-.17,.04-.16-.08c-.08-.04-8.25-4.34-7.77-15.61l-2.91,2.91-.21-.87c-.05-.21-4.66-20.63,9.06-33.59-.93-1.23-3.27-5.28-.17-12.24,2.8-4.26,6.3-7.82,10.45-10.65l1.49-1.02-.76,1.64s-1.55,3.38-1.78,6c3.25-3.77,15.38-15.21,37.42-6.68,.24,.13,15.95,9.56,30.91,7.97l1.19-.13-.75,.94c-2.26,2.83-5.2,4.99-8.57,6.28,2.5,1.82,9.88,7.84,11.23,16.53,.87,5.62-.99,11.24-5.53,16.71l-.67,.8-.95-4.63s-.35-1.44-.69-2.67c-1.3,.23-4.85,.37-7.57-3.82-2.66,.13-20.95,.91-27.82-2.12,.15,1.53,1.11,2.91,2.53,3.58l.95,.45-.95,.46c-.41,.19-9.76,4.59-18.85,1.17,2.45,11.35,1.51,23.04-2.73,33.87-.11,.27-.36,.44-.65,.44Zm-9.06-7.44c2.87,0,5.11,.58,6.68,1.73,1.27,.93,2.11,2.23,2.49,3.86,3.93-10.64,4.65-22.09,2.08-33.16l-.22-.97,.91,.4c7.38,3.21,15.4,.61,18.03-.42-1.49-1.09-2.36-2.91-2.21-4.8l.06-.78,.68,.39c6.24,3.52,28.1,2.37,28.32,2.36l.3-.02,.16,.25c2.98,4.84,7.02,3.54,7.06,3.53l.49-.17,.15,.5c.39,1.33,.83,3.17,.84,3.18l.53,2.58c3.86-4.97,5.43-10.04,4.65-15.08-1.52-9.82-11.5-16.35-11.6-16.41l-.88-.57,1-.33c3.18-1.05,6.01-2.9,8.25-5.37-14.91,1.03-30.08-8.08-30.23-8.18-25.16-9.73-36.93,7.3-37.04,7.47l-.72,1.08-.19-1.29c-.28-1.9,.54-4.57,1.18-6.27-3.43,2.57-6.36,5.69-8.73,9.3-3.36,7.56,.18,11.3,.34,11.45l.36,.37-.38,.35c-12.04,11.02-9.99,27.96-9.29,32.04l3.54-3.54-.14,1.39c-1.08,10.74,5.88,15.25,6.98,15.89,2.46-.51,4.65-.76,6.56-.76Z" fill="#002346"></path>
  </g>
  <path d="M424.8,415s-.04,0-.05,0l-66.1-7.12c-2.77-.3-5.18-1.96-6.45-4.44l-18.23-35.75c-.13-.25-.03-.55,.22-.67,.25-.12,.55-.03,.67,.22l18.23,35.75c1.11,2.18,3.23,3.64,5.66,3.9l66.1,7.12c.27,.03,.47,.28,.44,.55-.03,.26-.24,.45-.5,.45Z" fill="#002346"></path>
  <path d="M418.8,452s-.01,0-.02,0l-75.94-3.46c-.28-.01-.49-.25-.48-.52,.01-.27,.2-.48,.52-.48l75.94,3.46c.28,.01,.49,.25,.48,.52-.01,.27-.23,.48-.5,.48Z" fill="#002346"></path>
  <path d="M446.72,407.07c-.16,0-.31-.07-.41-.21l-22.42-31.57c-.16-.23-.11-.54,.12-.7,.22-.16,.54-.11,.7,.12l22.42,31.57c.16,.23,.11,.54-.12,.7-.09,.06-.19,.09-.29,.09Z" fill="#002346"></path>
  <g>
    <g>
      <path d="M333.33,579.8s15.97-13.43,34.09-.36c0,0,11.38,8.85,3.79,16.44,0,0-8.01,5.48-19.81-3.79,0,0-12.54-10.24-18.07-12.29Z" fill="#7cd295"></path>
      <path d="M364.81,597.88c-3.51,0-8.21-1.17-13.67-5.46-.13-.11-12.56-10.22-17.96-12.22l-.69-.25,.56-.47c.16-.14,16.43-13.49,34.61-.38,.27,.21,6.21,4.89,6.56,10.51,.15,2.41-.76,4.62-2.72,6.58-.08,.06-2.56,1.7-6.71,1.7Zm-30.63-18.19c5.79,2.54,17,11.67,17.49,12.07,11.42,8.97,19.22,3.83,19.3,3.77,1.71-1.72,2.54-3.71,2.41-5.87-.32-5.23-6.16-9.84-6.22-9.88-15.73-11.34-29.98-2.27-32.98-.09Z" fill="#002346"></path>
    </g>
    <g>
      <path d="M315.68,573.24s17.6-24.57,7.06-48.59c0,0-11.8-23.6,2.11-30.77,0,0,17.28-7.17,26.55,18.12,0,0,12.43,36.91-35.72,61.24Z" fill="#7cd295"></path>
      <path d="M314.33,574.4l1.01-1.41c.17-.24,17.33-24.65,7.02-48.18-.11-.22-11.82-24.04,2.3-31.32,.28-.12,6.12-2.47,12.92,.51,6.08,2.66,10.86,8.67,14.23,17.85,.03,.1,3.12,9.5,.21,21.74-2.68,11.28-11.12,27.38-36.14,40.02l-1.54,.78Zm16.12-81.03c-3.2,0-5.4,.89-5.43,.9-13.34,6.88-2.01,29.95-1.89,30.19,9.11,20.77-2.74,42.15-6.2,47.67,23.6-12.36,31.66-27.8,34.26-38.68,2.87-12.02-.14-21.22-.18-21.31-3.28-8.94-7.91-14.78-13.77-17.35-2.47-1.08-4.82-1.42-6.79-1.42Z" fill="#002346"></path>
    </g>
    <g>
      <path d="M270.94,502.43c-4.37,2.15-7.24,6.59-7.17,11.46,.09,6.09,3.82,14.47,21.46,19.18,0,0,20.68,5.12,22.99,20.48,0,0,5.71-19.02-4.02-37.19-3.73-6.96-9.93-12.34-17.49-14.63-4.74-1.44-10.41-1.93-15.76,.71Z" fill="#7cd295"></path>
      <path d="M308.08,555.49l-.28-1.88c-2.24-14.89-22.46-20.08-22.67-20.13-17.83-4.77-21.69-13.29-21.78-19.59-.07-4.94,2.84-9.59,7.41-11.84h0c4.67-2.3,10.08-2.55,16.07-.73,7.54,2.29,13.84,7.56,17.74,14.84,9.7,18.11,4.11,37.32,4.06,37.51l-.55,1.82Zm-28.81-54.52c-2.92,0-5.64,.62-8.13,1.85h0c-4.28,2.11-7,6.45-6.93,11.07,.09,6.01,3.83,14.15,21.14,18.78,.19,.05,19.28,4.93,22.91,18.94,1.11-5.17,3.37-20.47-4.43-35.04-3.79-7.08-9.91-12.21-17.23-14.43-2.56-.78-5-1.16-7.32-1.16Z" fill="#002346"></path>
    </g>
    <g>
      <path d="M269.96,565.63c1.06,2.02,3.03,4.27,6.42,6.64,0,0,13.31,7.72,16.77,18.61,0,0-.33-17.77-10.45-31.26,0,0-.88-1.66-2.68-2.96-5.96-4.29-13.47,2.46-10.06,8.96Z" fill="#7cd295"></path>
      <path d="M293.63,593.8l-.89-2.79c-3.37-10.61-16.45-18.3-16.58-18.37-3.16-2.21-5.36-4.5-6.58-6.82h0c-1.91-3.63-.53-7.19,1.69-9.12,2.62-2.28,6.15-2.43,8.99-.39,1.86,1.34,2.77,3.03,2.81,3.11,10.05,13.39,10.5,31.27,10.5,31.45l.05,2.92Zm-17.59-38.06c-1.68,0-3.18,.71-4.2,1.61-1.82,1.58-3.3,4.64-1.49,8.08h0c1.15,2.2,3.27,4.38,6.28,6.49,.48,.27,11.44,6.72,15.91,16.23-.54-5.49-2.59-18.16-10.17-28.27-.04-.07-.9-1.65-2.59-2.87-1.26-.91-2.54-1.27-3.73-1.27Z" fill="#002346"></path>
    </g>
    <g>
      <polygon points="286.07 607.69 288.31 651.73 325.69 651.73 328.22 608.11 286.07 607.69" fill="#fff"></polygon>
      <path d="M325.69,652.16h-37.38c-.23,0-.41-.18-.42-.4l-2.24-44.05c0-.12,.04-.23,.12-.32,.08-.08,.18-.13,.31-.13l42.15,.42c.12,0,.23,.05,.31,.14,.08,.08,.12,.2,.11,.31l-2.53,43.63c-.01,.22-.2,.4-.42,.4Zm-36.98-.85h36.58l2.48-42.78-41.25-.41,2.2,43.19Z" fill="#002346"></path>
    </g>
    <path d="M315.16,607.9s-.02,0-.03,0c-.23-.02-.41-.22-.39-.46,.01-.17,1.46-17.56,13.42-25.66,7.08-4.8,16.37-5.44,27.6-1.9,.22,.07,.35,.31,.28,.53s-.31,.35-.53,.28c-10.97-3.45-20.01-2.85-26.86,1.79-11.62,7.86-13.04,24.85-13.05,25.02-.02,.22-.2,.39-.42,.39Z" fill="#002346"></path>
    <path d="M308.67,607.61c-.19,0-.36-.12-.41-.31-6.62-23.68,9.41-37.4,12.7-39.92,.98-.75,2.13-1.64,3.23-2.59,29.12-25.06,12.28-53.13,12.1-53.41-.12-.2-.06-.46,.14-.59,.2-.12,.46-.06,.59,.14,.18,.29,17.41,28.95-12.27,54.5-1.12,.97-2.28,1.87-3.27,2.62-3.21,2.45-18.87,15.86-12.39,39.01,.06,.23-.07,.46-.3,.52-.04,.01-.08,.02-.12,.02Z" fill="#002346"></path>
    <path d="M305.64,607.92c-.14,0-.28-.07-.36-.2-10.3-16.6-2.62-37.75-.02-43.83,.65-1.53,1.12-2.81,1.45-4.03,7.24-26.06-14.76-41.87-14.98-42.03-.19-.13-.24-.4-.1-.59,.13-.19,.4-.24,.59-.1,.23,.16,22.71,16.3,15.31,42.95-.35,1.25-.82,2.57-1.49,4.14-2.56,5.99-10.12,26.8-.04,43.05,.12,.2,.06,.46-.14,.59-.07,.04-.15,.06-.22,.06Z" fill="#002346"></path>
    <path d="M294.8,607.65s-.01,0-.02,0c-.23,0-.42-.21-.41-.44,1.12-27.68-15.12-38.69-15.28-38.8-.2-.13-.25-.39-.12-.59,.13-.2,.39-.25,.59-.12,.17,.11,16.8,11.36,15.66,39.54,0,.23-.2,.41-.42,.41Z" fill="#002346"></path>
  </g>
  <g>
    <ellipse cx="360.68" cy="248.16" rx="30.5" ry="13" fill="#002346"></ellipse>
    <path d="M360.68,261.66c-17.38,0-31-5.93-31-13.5s13.62-13.5,31-13.5,31,5.93,31,13.5-13.62,13.5-31,13.5Zm0-26c-16.54,0-30,5.61-30,12.5s13.46,12.5,30,12.5,30-5.61,30-12.5-13.46-12.5-30-12.5Z" fill="#002346"></path>
  </g>
</svg>
