<svg xmlns="http://www.w3.org/2000/svg" xml:space="preserve" width="110" height="110" version="1.0" id="student">
  <path fill="#E2E4E5" d="m67 67.997-2-1H45l-2 1L55 87z"></path>
  <path fill="#F8E1C2" d="M70 45c-1 0-1 1.111-1 1.111V45a65.207 65.207 0 0 0-.067-3.062C64.891 38.001 55 38 55 38s-9.891.001-13.933 3.938A65.207 65.207 0 0 0 41 45v7.997l4 10 5.105 3.996a2.999 2.999 0 0 0 2.24 1.004h5.31c.856 0 1.671-.365 2.24-1.004L65 62.997l3.207-8.017C71.042 54.776 72 50.476 72 47.222 72 46.111 71 45 70 45z"></path>
  <path fill="#FCF1E2" d="M41 45v1.111S41 45 40 45s-2 1.111-2 2.222c0 3.253.958 7.554 3.793 7.758L45 62.997l5.105 3.996a2.999 2.999 0 0 0 2.24 1.004H55V38s-9.891.001-13.933 3.938A65.207 65.207 0 0 0 41 45z"></path>
  <path fill="#F79392" d="M50 56.997h10s0 3-5 3-5-3-5-3z"></path>
  <path fill="#3E3E3F" d="M61 47.322c1.191 0 2.248.266 2.981.678.071-.569-.172-1.154-.748-1.59-1.03-.781-2.702-.781-3.733 0-.464.352-.709.801-.753 1.26A7.068 7.068 0 0 1 61 47.322zM48.993 47.322c-1.191 0-2.248.266-2.981.678-.071-.569.172-1.154.748-1.59 1.03-.781 2.702-.781 3.733 0 .464.352.709.801.753 1.26a7.068 7.068 0 0 0-2.253-.348z"></path>
  <path fill="#F4D0A1" d="M57.655 67.997h-5.31a2.999 2.999 0 0 1-2.24-1.004L45 62.997v4.5s0 7.5 10 7.5 10-7.5 10-7.5v-4.5l-5.105 3.996a2.999 2.999 0 0 1-2.24 1.004z"></path>
  <g fill="#3E3E3F">
    <path d="M55 38s-.758 0-1.938.083v5.625c3.719 0 5.972-2.684 7.274-5.234C57.41 38.001 55 38 55 38zM45.919 39.332c-1.897.59-3.691 1.44-4.919 2.668 0 3.542 2.323 5.25 2.323 5.25-.294-2.956-.31-4.882 2.596-7.918zM46.865 39.062v4.647c2.865 0 5.149-4.054 5.918-5.604-1.565.121-3.756.385-5.918.957zM66.344 40.205v7.045c2.488 0 2.646-4.661 2.655-5.25-.721-.722-1.638-1.311-2.655-1.795zM61.917 38.771v4.938c3.354 0 4.325-3.171 4.418-3.508-1.367-.65-2.914-1.108-4.418-1.43z"></path>
  </g>
  <path fill="#F8E1C2" d="M50.105 66.993 45 62.997v4.5s0 7.5 10 7.5v-7h-2.655a2.999 2.999 0 0 1-2.24-1.004z"></path>
  <path fill="#FA5655" d="M34.491 53.445v-19.62a166.26 166.26 0 0 1-2-.728v20.348c-2.61 1.72-1 6.85-1 9.555h4c0-2.705 1.611-7.835-1-9.555z"></path>
  <path fill="#3E3E3F" d="M82 31c0-1-25-8-27-8s-27 7-27 8c0 .625 7.432 3.207 13 5.053V42c4-4 14-4 14-4s10 0 14 4v-5.947c5.568-1.846 13-4.428 13-5.053z"></path>
  <path fill="#FFF" d="M66.965 68.059 67 68l-2-1-9.985 4.981 5.793 5.826z"></path>
  <path fill="#DF2C2C" d="m59 87-2.799-10.2L58 75.002l-3.019-3.024-2.998 2.998 1.818 1.817L51 87z"></path>
  <path fill="#FA5655" d="M55 87V71.997l-.019-.019-2.998 2.998 1.818 1.817L51 87z"></path>
  <path fill="#FFF" d="M43.035 68.059 43 68l2-1 9.985 4.981-5.793 5.826z"></path>
  <path fill="#3E3E3F" d="m23 87 4-11a6.002 6.002 0 0 1 3.043-2.983L43 68l12 19H23zM87 87l-4-11a6.002 6.002 0 0 0-3.043-2.983L67 68 55 87h32z"></path>
  <path fill="#9E9FA0" d="M55 87 43 68l-9 3 17 16zM55 87l12-19 9 3-17 16z"></path>
</svg>
